<svg xmlns="http://www.w3.org/2000/svg" viewBox="0 0 1200 540" style="font-family:-apple-system, system-ui, sans-serif; background:#fbf7ee; max-width:100%; height:auto;" role="img" aria-label="Map of 59 Turkish CBAM-scope facilities">
<rect x="0" y="0" width="1200" height="540" fill="#fbf7ee"/>
<path d="M77.8,176.3 L64.9,178.6 L60.9,176.3 L64.9,171.9 L72.5,169.1 L74.9,168.8 L78.2,173.2 L77.8,176.3 Z M952.9,73.5 L956.6,75.0 L963.7,76.9 L968.1,79.3 L970.5,79.9 L976.3,75.1 L984.9,75.3 L992.4,75.8 L996.3,76.7 L1001.0,78.3 L1006.7,79.3 L1009.1,77.1 L1012.4,70.4 L1013.7,69.5 L1014.7,68.9 L1018.9,68.4 L1023.0,68.9 L1024.9,70.0 L1026.8,75.4 L1031.5,77.3 L1040.0,85.9 L1045.2,89.3 L1046.4,90.7 L1044.7,92.5 L1045.4,94.6 L1048.4,97.4 L1052.5,98.4 L1057.0,98.1 L1059.5,99.1 L1061.2,100.6 L1061.7,102.9 L1061.5,104.3 L1062.4,107.4 L1065.9,111.9 L1070.1,114.6 L1072.4,117.6 L1076.0,127.6 L1077.5,133.1 L1076.9,138.5 L1074.4,143.9 L1068.9,150.7 L1070.2,153.6 L1071.5,157.3 L1071.1,160.0 L1075.0,168.7 L1076.8,174.1 L1075.3,175.3 L1074.3,177.0 L1081.4,181.1 L1089.8,184.6 L1093.4,185.3 L1103.1,183.7 L1109.4,183.3 L1115.6,186.6 L1124.7,194.6 L1134.4,204.9 L1136.4,208.1 L1137.2,209.4 L1139.1,211.9 L1137.1,211.9 L1133.9,209.7 L1126.2,203.3 L1122.2,206.0 L1118.8,210.8 L1115.0,228.6 L1112.0,230.5 L1106.6,230.5 L1100.1,229.8 L1095.6,230.7 L1094.4,231.9 L1095.0,233.8 L1096.3,236.7 L1097.3,240.4 L1097.6,243.5 L1099.9,246.2 L1103.1,248.8 L1103.3,251.5 L1102.8,255.2 L1102.0,258.1 L1101.2,259.7 L1102.7,264.0 L1106.2,269.2 L1108.4,271.2 L1107.6,280.9 L1108.9,285.3 L1109.9,291.2 L1109.5,301.1 L1109.9,303.6 L1111.1,304.4 L1114.3,304.8 L1117.4,305.7 L1118.4,307.3 L1118.4,308.5 L1114.6,313.0 L1114.1,316.2 L1112.8,320.8 L1111.7,323.4 L1108.2,328.5 L1106.0,333.6 L1105.0,337.8 L1105.7,339.8 L1112.0,340.4 L1115.5,343.4 L1124.7,349.5 L1126.3,351.9 L1123.8,355.6 L1123.9,357.2 L1125.0,359.1 L1125.6,362.6 L1125.4,366.4 L1125.4,371.4 L1127.1,372.3 L1133.4,377.0 L1137.8,381.7 L1138.0,383.2 L1135.8,386.9 L1136.3,391.2 L1136.2,392.2 L1134.3,390.6 L1130.8,390.0 L1127.2,389.8 L1125.0,391.1 L1121.0,394.4 L1115.7,398.1 L1111.4,401.5 L1109.0,403.8 L1106.9,403.4 L1105.4,401.4 L1104.5,398.6 L1104.8,387.9 L1103.9,384.6 L1101.9,382.2 L1099.6,380.9 L1096.7,380.2 L1093.8,380.1 L1089.7,383.2 L1083.9,386.4 L1074.9,386.2 L1068.8,385.6 L1065.8,385.0 L1054.1,380.0 L1051.6,379.9 L1047.2,377.9 L1042.0,376.3 L1033.2,379.3 L1029.4,378.6 L1024.1,375.9 L1022.2,376.6 L1016.3,384.6 L1006.2,393.1 L1000.7,394.6 L998.1,386.0 L995.6,382.7 L994.4,382.3 L991.9,381.2 L989.9,381.8 L983.9,387.7 L974.1,391.2 L966.0,393.3 L953.2,395.9 L943.3,397.2 L939.1,397.3 L929.9,396.2 L921.9,394.5 L913.8,394.6 L907.6,395.3 L893.2,401.6 L868.8,414.5 L850.2,420.6 L839.8,423.2 L831.6,424.6 L817.7,424.7 L806.3,423.7 L798.4,423.8 L794.0,422.3 L787.8,417.1 L780.2,411.9 L776.9,410.7 L772.5,409.7 L766.0,409.2 L750.0,416.7 L745.0,418.7 L739.5,420.3 L728.4,424.9 L723.5,427.3 L717.4,427.1 L709.5,426.4 L702.7,426.7 L698.1,423.2 L695.7,419.2 L686.4,416.8 L679.7,416.1 L678.0,417.9 L676.2,423.2 L673.4,436.9 L672.9,440.3 L678.7,453.9 L678.5,456.0 L674.3,456.7 L669.5,456.9 L666.4,458.1 L663.8,460.3 L662.2,472.0 L656.6,474.2 L654.0,476.6 L651.3,483.8 L649.8,484.0 L640.8,478.5 L636.6,478.1 L640.2,472.4 L636.3,461.2 L632.0,450.7 L636.0,443.9 L644.4,435.8 L653.2,426.2 L653.2,420.3 L652.8,415.8 L650.2,412.7 L645.4,408.5 L637.3,413.0 L631.4,417.9 L627.7,418.8 L623.5,421.6 L621.5,426.7 L616.6,430.6 L608.5,432.1 L596.2,427.9 L583.1,421.5 L575.7,416.4 L569.6,415.1 L563.9,417.4 L546.9,430.1 L531.3,448.5 L527.5,451.7 L512.8,459.6 L503.1,462.2 L498.6,461.6 L479.3,465.1 L469.7,465.6 L462.1,469.8 L447.4,465.3 L438.7,459.5 L433.4,453.6 L424.7,440.9 L418.6,434.9 L404.9,429.5 L380.9,416.2 L374.6,414.8 L358.3,412.9 L341.0,411.7 L337.5,416.5 L336.2,435.6 L333.3,440.8 L332.0,450.6 L329.9,453.5 L326.6,455.3 L321.4,452.2 L317.8,450.8 L309.4,454.9 L292.9,460.6 L287.3,461.4 L268.1,454.2 L261.0,449.6 L256.5,444.6 L255.0,436.0 L252.1,431.1 L251.7,427.7 L250.6,423.8 L246.7,422.3 L242.6,425.2 L238.1,425.1 L232.6,423.3 L219.4,416.0 L209.2,415.5 L203.2,424.3 L198.4,427.1 L193.2,427.9 L192.9,425.4 L196.9,419.7 L181.1,420.8 L172.8,425.1 L166.3,424.4 L161.4,422.5 L162.1,420.1 L167.1,419.2 L171.4,417.2 L188.4,415.7 L192.4,414.1 L196.8,407.8 L204.8,402.5 L205.8,400.2 L199.7,400.1 L173.5,401.7 L155.5,400.8 L153.3,403.5 L150.6,403.9 L149.9,396.6 L152.7,393.3 L156.6,393.6 L166.0,390.7 L165.1,384.6 L158.4,380.6 L157.0,378.2 L152.1,377.6 L148.2,374.7 L147.3,367.5 L144.2,359.5 L139.7,355.6 L140.2,353.5 L148.5,350.8 L150.2,339.7 L148.9,332.8 L144.8,332.2 L132.7,326.8 L129.0,327.3 L125.0,321.4 L118.0,317.1 L114.5,318.6 L112.3,320.6 L109.1,319.6 L103.6,315.9 L98.3,313.9 L95.9,311.4 L98.9,304.7 L103.0,304.9 L103.7,299.7 L100.5,290.9 L100.8,286.5 L104.4,285.2 L108.4,286.1 L112.5,291.3 L113.9,296.3 L113.0,301.2 L115.6,306.0 L117.5,307.2 L118.7,302.2 L120.5,301.2 L122.9,303.4 L128.0,304.5 L141.4,301.5 L144.0,298.9 L134.2,299.1 L130.6,296.7 L126.7,291.3 L124.3,286.3 L123.9,283.9 L122.5,280.3 L124.0,278.4 L130.7,275.5 L136.6,267.5 L134.1,265.2 L131.3,264.1 L128.3,264.9 L125.4,262.1 L125.0,258.3 L127.3,255.2 L127.6,250.9 L120.0,240.4 L117.9,238.1 L119.5,234.6 L125.3,228.8 L130.8,221.7 L130.2,219.3 L126.1,218.3 L106.8,221.4 L99.3,224.1 L85.9,225.3 L84.9,221.4 L85.2,217.9 L88.2,211.5 L88.0,195.7 L89.7,187.0 L97.2,184.5 L106.3,171.8 L121.1,156.8 L136.5,157.1 L142.7,153.0 L151.9,152.7 L153.5,155.7 L154.6,158.6 L162.6,162.7 L176.8,162.1 L180.3,160.5 L183.6,158.2 L177.0,150.8 L179.1,148.7 L185.1,148.5 L191.6,150.2 L191.8,151.9 L190.1,154.2 L188.1,158.3 L190.0,159.1 L208.4,156.6 L227.6,158.6 L233.7,157.5 L248.9,157.6 L251.6,155.0 L247.0,151.8 L242.5,150.7 L239.5,149.2 L236.5,146.9 L246.1,139.7 L251.5,138.4 L277.0,134.0 L296.0,131.8 L296.3,130.1 L293.5,130.1 L269.0,126.5 L263.1,123.6 L254.9,116.9 L253.1,115.0 L251.0,111.7 L252.2,104.7 L253.8,99.0 L256.8,95.7 L266.6,95.2 L300.2,101.0 L324.2,97.5 L350.4,105.9 L375.4,104.2 L380.6,100.5 L386.9,88.3 L422.2,68.1 L434.6,57.5 L447.9,51.7 L470.7,45.3 L489.7,36.7 L495.2,35.7 L540.9,39.8 L572.3,40.3 L586.7,32.3 L595.0,35.0 L594.3,37.9 L592.7,40.3 L593.2,45.3 L598.1,52.6 L603.1,57.6 L617.7,64.7 L638.1,58.7 L641.4,59.4 L645.5,61.1 L652.7,80.3 L658.3,87.1 L665.4,91.7 L671.3,92.6 L675.7,87.8 L679.1,85.9 L686.4,85.1 L698.5,91.7 L702.7,98.5 L723.2,103.7 L742.0,106.4 L750.2,112.1 L776.7,117.9 L786.6,117.0 L803.2,110.9 L835.6,104.3 L857.0,113.6 L862.9,114.8 L867.9,114.0 L875.1,116.5 L882.8,115.1 L906.6,104.2 L914.0,98.0 L921.9,96.4 L928.9,92.7 L947.5,80.5 L952.9,73.5 Z M193.0,39.4 L191.4,48.1 L195.0,57.6 L203.3,70.7 L211.6,77.3 L245.5,93.7 L251.7,95.1 L250.3,101.8 L248.2,107.7 L246.0,111.6 L236.1,114.2 L208.7,106.9 L201.8,106.2 L197.0,107.7 L187.9,113.0 L177.9,111.3 L164.0,114.3 L160.1,124.2 L150.4,135.5 L134.4,144.7 L123.0,149.6 L105.9,167.1 L98.1,177.2 L94.8,179.2 L90.9,180.8 L92.2,175.9 L94.2,171.4 L93.7,168.0 L93.8,163.1 L99.5,157.5 L104.7,153.5 L120.1,146.1 L124.1,140.0 L112.1,140.2 L99.8,141.5 L92.1,140.7 L85.5,141.2 L83.3,135.8 L81.7,132.6 L83.4,131.6 L85.7,130.9 L89.6,125.2 L93.1,121.0 L98.2,115.7 L99.5,112.5 L99.5,109.5 L98.2,107.5 L98.0,105.0 L97.9,101.6 L98.1,94.4 L109.7,86.6 L113.4,85.8 L114.7,82.2 L113.9,73.9 L112.3,67.2 L110.2,66.7 L107.4,64.8 L105.6,62.5 L102.6,60.0 L97.6,58.5 L97.4,56.4 L97.9,54.3 L99.8,52.1 L108.3,50.2 L109.3,48.7 L110.5,44.9 L112.2,41.0 L114.2,39.7 L117.8,39.8 L124.6,39.0 L129.3,37.7 L134.1,35.0 L136.5,32.6 L146.7,31.2 L149.6,30.0 L152.4,31.0 L156.3,35.2 L162.6,41.1 L165.9,43.1 L168.5,42.2 L173.1,40.0 L177.4,40.0 L181.0,40.4 L182.7,38.5 L185.3,38.1 L193.0,39.4 Z" fill="#e8dec8" stroke="#a89e90" stroke-width="0.8" stroke-linejoin="round" fill-rule="evenodd"/>
<line x1="79.5" y1="472.3" x2="1093.1" y2="472.3" stroke="#a89e90" stroke-width="0.3" opacity="0.25"/>
<line x1="79.5" y1="331.2" x2="1093.1" y2="331.2" stroke="#a89e90" stroke-width="0.3" opacity="0.25"/>
<line x1="79.5" y1="186.3" x2="1093.1" y2="186.3" stroke="#a89e90" stroke-width="0.3" opacity="0.25"/>
<line x1="79.5" y1="37.1" x2="1093.1" y2="37.1" stroke="#a89e90" stroke-width="0.3" opacity="0.25"/>
<line x1="79.5" y1="-1.0" x2="79.5" y2="507.0" stroke="#a89e90" stroke-width="0.3" opacity="0.25"/>
<line x1="304.8" y1="-1.0" x2="304.8" y2="507.0" stroke="#a89e90" stroke-width="0.3" opacity="0.25"/>
<line x1="530.0" y1="-1.0" x2="530.0" y2="507.0" stroke="#a89e90" stroke-width="0.3" opacity="0.25"/>
<line x1="755.2" y1="-1.0" x2="755.2" y2="507.0" stroke="#a89e90" stroke-width="0.3" opacity="0.25"/>
<line x1="980.5" y1="-1.0" x2="980.5" y2="507.0" stroke="#a89e90" stroke-width="0.3" opacity="0.25"/>
<a href="/bench/eti-aluminyum-seydisehir/" target="_top"><circle cx="408.9" cy="372.5" r="4.0" fill="#5a4a7a" fill-opacity="0.78" stroke="none" stroke-width="0"><title>Eti Alüminyum — Seydişehir Plant (aluminum, cap 80,000 t/yr)</title></circle></a>
<a href="/bench/asas-akyazi/" target="_top"><circle cx="338.0" cy="133.8" r="6.7" fill="#5a4a7a" fill-opacity="0.78" stroke="#14181d" stroke-width="1.6"><title>Asaş Alüminyum — Akyazı Plant (aluminum, cap 250,000 t/yr); LODO ratio 1.26× truth</title></circle></a>
<a href="/bench/assan-tuzla/" target="_top"><circle cx="265.3" cy="123.4" r="7.5" fill="#5a4a7a" fill-opacity="0.78" stroke="#14181d" stroke-width="1.6"><title>Assan Alüminyum — Tuzla Plant (aluminum, cap 360,000 t/yr); LODO ratio 0.89× truth</title></circle></a>
<a href="/bench/gemlik-gubre/" target="_top"><circle cx="257.5" cy="155.3" r="8.3" fill="#7a6a2d" fill-opacity="0.78" stroke="none" stroke-width="0"><title>Gemlik Gübre — Gemlik Plant (fertilizer, cap 500,000 t/yr)</title></circle></a>
<a href="/bench/toros-samsun/" target="_top"><circle cx="660.6" cy="89.8" r="8.6" fill="#7a6a2d" fill-opacity="0.78" stroke="#14181d" stroke-width="1.6"><title>Toros Tarım — Samsun Fertilizer Plant (fertilizer, cap 575,000 t/yr); LODO ratio 0.64× truth</title></circle></a>
<a href="/bench/bagfas-bandirma/" target="_top"><circle cx="188.8" cy="159.8" r="9.1" fill="#7a6a2d" fill-opacity="0.78" stroke="#14181d" stroke-width="1.6"><title>BAGFAŞ — Bandırma Plant (fertilizer, cap 700,000 t/yr); LODO ratio 2.06× truth</title></circle></a>
<a href="/bench/limak-bitlis/" target="_top"><circle cx="986.1" cy="302.6" r="9.4" fill="#2d5a4c" fill-opacity="0.78" stroke="none" stroke-width="0"><title>Limak Çimento — Bitlis Cement Plant (cement, cap 800,000 t/yr)</title></circle></a>
<a href="/bench/gubretas-izmit/" target="_top"><circle cx="292.4" cy="129.4" r="9.4" fill="#7a6a2d" fill-opacity="0.78" stroke="#14181d" stroke-width="1.6"><title>Gübretaş — Yarımca Plant (fertilizer, cap 800,000 t/yr); LODO ratio 0.97× truth</title></circle></a>
<a href="/bench/toros-mersin/" target="_top"><circle cx="564.4" cy="417.7" r="9.4" fill="#7a6a2d" fill-opacity="0.78" stroke="#14181d" stroke-width="1.6"><title>Toros Tarım — Mersin Fertilizer Plant (fertilizer, cap 810,000 t/yr); LODO ratio 0.56× truth</title></circle></a>
<a href="/bench/toros-ceyhan/" target="_top"><circle cx="633.1" cy="413.5" r="9.5" fill="#7a6a2d" fill-opacity="0.78" stroke="#14181d" stroke-width="1.6"><title>Toros Tarım — Ceyhan Fertilizer Plant (fertilizer, cap 821,700 t/yr); LODO ratio 1.19× truth</title></circle></a>
<a href="/bench/akcansa-ladik/" target="_top"><circle cx="646.6" cy="118.2" r="9.9" fill="#2d5a4c" fill-opacity="0.78" stroke="#14181d" stroke-width="1.6"><title>Akçansa — Ladik Cement Plant (cement, cap 1,000,000 t/yr); LODO ratio 1.07× truth</title></circle></a>
<a href="/bench/limak-derik/" target="_top"><circle cx="883.1" cy="376.8" r="9.9" fill="#2d5a4c" fill-opacity="0.78" stroke="none" stroke-width="0"><title>Limak Çimento — Derik Cement Plant (cement, cap 1,000,000 t/yr)</title></circle></a>
<a href="/bench/cimentas-elazig/" target="_top"><circle cx="823.9" cy="283.1" r="9.9" fill="#2d5a4c" fill-opacity="0.78" stroke="none" stroke-width="0"><title>Çimentaş — Elazığ Cement Plant (cement, cap 1,000,000 t/yr)</title></circle></a>
<a href="/bench/borcelik-gemlik/" target="_top"><circle cx="258.6" cy="155.3" r="9.9" fill="#7a3b22" fill-opacity="0.78" stroke="none" stroke-width="0"><title>Borçelik — Gemlik Flat Steel Plant (steel, cap 1,000,000 t/yr)</title></circle></a>
<a href="/bench/kroman-gebze/" target="_top"><circle cx="276.0" cy="127.9" r="9.9" fill="#7a3b22" fill-opacity="0.78" stroke="none" stroke-width="0"><title>Kroman Çelik — Gebze Plant (steel, cap 1,000,000 t/yr)</title></circle></a>
<a href="/bench/asilcelik-izmit/" target="_top"><circle cx="301.4" cy="133.1" r="9.9" fill="#7a3b22" fill-opacity="0.78" stroke="none" stroke-width="0"><title>Asilçelik — İzmit Plant (steel, cap 1,000,000 t/yr)</title></circle></a>
<a href="/bench/yazici-iskenderun/" target="_top"><circle cx="654.4" cy="422.6" r="9.9" fill="#7a3b22" fill-opacity="0.78" stroke="none" stroke-width="0"><title>Yazıcı Demir Çelik — Payas Plant (steel, cap 1,000,000 t/yr)</title></circle></a>
<a href="/bench/limak-ergani/" target="_top"><circle cx="854.4" cy="311.9" r="10.3" fill="#2d5a4c" fill-opacity="0.78" stroke="none" stroke-width="0"><title>Limak Çimento — Ergani Cement Plant (cement, cap 1,200,000 t/yr)</title></circle></a>
<a href="/bench/cimsa-nigde/" target="_top"><circle cx="568.3" cy="334.1" r="10.7" fill="#2d5a4c" fill-opacity="0.78" stroke="none" stroke-width="0"><title>Çimsa — Niğde Cement Plant (cement, cap 1,400,000 t/yr)</title></circle></a>
<a href="/bench/cimsa-eskisehir/" target="_top"><circle cx="334.0" cy="202.5" r="10.9" fill="#2d5a4c" fill-opacity="0.78" stroke="none" stroke-width="0"><title>Çimsa — Eskişehir Cement Plant (cement, cap 1,500,000 t/yr)</title></circle></a>
<a href="/bench/limak-kurtalan/" target="_top"><circle cx="963.0" cy="337.0" r="10.9" fill="#2d5a4c" fill-opacity="0.78" stroke="none" stroke-width="0"><title>Limak Çimento — Kurtalan Cement Plant (cement, cap 1,500,000 t/yr)</title></circle></a>
<a href="/bench/cimentas-edirne/" target="_top"><circle cx="111.1" cy="62.0" r="10.9" fill="#2d5a4c" fill-opacity="0.78" stroke="none" stroke-width="0"><title>Çimentaş — Edirne Cement Plant (cement, cap 1,500,000 t/yr)</title></circle></a>
<a href="/bench/askale-erzurum/" target="_top"><circle cx="927.6" cy="192.2" r="10.9" fill="#2d5a4c" fill-opacity="0.78" stroke="none" stroke-width="0"><title>Aşkale Çimento — Erzurum Cement Plant (cement, cap 1,500,000 t/yr)</title></circle></a>
<a href="/bench/tosyali-sivas/" target="_top"><circle cx="696.1" cy="204.7" r="10.9" fill="#7a3b22" fill-opacity="0.78" stroke="none" stroke-width="0"><title>Tosyalı — Sivas Mill (steel, cap 1,500,000 t/yr)</title></circle></a>
<a href="/bench/izdemir-aliaga/" target="_top"><circle cx="133.0" cy="274.5" r="10.9" fill="#7a3b22" fill-opacity="0.78" stroke="#14181d" stroke-width="1.6"><title>İzdemir — Aliağa Plant (steel, cap 1,500,000 t/yr); LODO ratio 1.09× truth</title></circle></a>
<a href="/bench/cimsa-kayseri/" target="_top"><circle cx="613.9" cy="278.1" r="11.2" fill="#2d5a4c" fill-opacity="0.78" stroke="none" stroke-width="0"><title>Çimsa — Kayseri Cement Plant (cement, cap 1,700,000 t/yr)</title></circle></a>
<a href="/bench/afyon-cimento/" target="_top"><circle cx="335.3" cy="276.9" r="11.3" fill="#2d5a4c" fill-opacity="0.78" stroke="#14181d" stroke-width="1.6"><title>Afyon Çimento — Afyonkarahisar Cement Plant (cement, cap 1,800,000 t/yr); LODO ratio 0.57× truth</title></circle></a>
<a href="/bench/oyak-aslan/" target="_top"><circle cx="366.7" cy="131.6" r="11.5" fill="#2d5a4c" fill-opacity="0.78" stroke="none" stroke-width="0"><title>OYAK Çimento — Aslan Cement Plant (cement, cap 2,000,000 t/yr)</title></circle></a>
<a href="/bench/bursa-cimento/" target="_top"><circle cx="247.9" cy="170.9" r="11.5" fill="#2d5a4c" fill-opacity="0.78" stroke="#14181d" stroke-width="1.6"><title>Bursa Çimento — Bursa Cement Plant (cement, cap 2,000,000 t/yr); LODO ratio 0.47× truth</title></circle></a>
<a href="/bench/baticim-izmir/" target="_top"><circle cx="138.6" cy="291.8" r="11.5" fill="#2d5a4c" fill-opacity="0.78" stroke="none" stroke-width="0"><title>Batıçim — İzmir Cement Plant (cement, cap 2,000,000 t/yr)</title></circle></a>
<a href="/bench/cimko-adiyaman/" target="_top"><circle cx="771.0" cy="348.4" r="11.5" fill="#2d5a4c" fill-opacity="0.78" stroke="none" stroke-width="0"><title>Çimko — Adıyaman Cement Plant (cement, cap 2,000,000 t/yr)</title></circle></a>
<a href="/bench/ekinciler-iskenderun/" target="_top"><circle cx="651.6" cy="426.8" r="11.5" fill="#7a3b22" fill-opacity="0.78" stroke="none" stroke-width="0"><title>Ekinciler — İskenderun Plant (steel, cap 2,000,000 t/yr)</title></circle></a>
<a href="/bench/diler-aliaga/" target="_top"><circle cx="134.1" cy="273.0" r="11.5" fill="#7a3b22" fill-opacity="0.78" stroke="none" stroke-width="0"><title>Diler — Aliağa Plant (steel, cap 2,000,000 t/yr)</title></circle></a>
<a href="/bench/cimsa-mersin/" target="_top"><circle cx="567.2" cy="414.2" r="12.0" fill="#2d5a4c" fill-opacity="0.78" stroke="none" stroke-width="0"><title>Çimsa — Mersin Cement Plant (cement, cap 2,400,000 t/yr)</title></circle></a>
<a href="/bench/akcansa-buyukcekmece/" target="_top"><circle cx="223.6" cy="109.3" r="12.1" fill="#2d5a4c" fill-opacity="0.78" stroke="#14181d" stroke-width="1.6"><title>Akçansa — Büyükçekmece Cement Plant (cement, cap 2,500,000 t/yr); LODO ratio 1.10× truth</title></circle></a>
<a href="/bench/limak-ankara/" target="_top"><circle cx="465.2" cy="189.3" r="12.1" fill="#2d5a4c" fill-opacity="0.78" stroke="none" stroke-width="0"><title>Limak Çimento — Ankara Cement Plant (cement, cap 2,500,000 t/yr)</title></circle></a>
<a href="/bench/limak-sanliurfa/" target="_top"><circle cx="799.7" cy="390.9" r="12.1" fill="#2d5a4c" fill-opacity="0.78" stroke="none" stroke-width="0"><title>Limak Çimento — Şanlıurfa Cement Plant (cement, cap 2,500,000 t/yr)</title></circle></a>
<a href="/bench/limak-trakya/" target="_top"><circle cx="164.5" cy="113.8" r="12.1" fill="#2d5a4c" fill-opacity="0.78" stroke="none" stroke-width="0"><title>Limak Çimento — Trakya Cement Plant (cement, cap 2,500,000 t/yr)</title></circle></a>
<a href="/bench/cimentas-izmir/" target="_top"><circle cx="147.7" cy="300.4" r="12.1" fill="#2d5a4c" fill-opacity="0.78" stroke="none" stroke-width="0"><title>Çimentaş — İzmir Cement Plant (cement, cap 2,500,000 t/yr)</title></circle></a>
<a href="/bench/denizli-cimento/" target="_top"><circle cx="253.5" cy="346.9" r="12.1" fill="#2d5a4c" fill-opacity="0.78" stroke="none" stroke-width="0"><title>Denizli Çimento — Denizli Cement Plant (cement, cap 2,500,000 t/yr)</title></circle></a>
<a href="/bench/bolu-cimento/" target="_top"><circle cx="394.3" cy="132.4" r="12.1" fill="#2d5a4c" fill-opacity="0.78" stroke="none" stroke-width="0"><title>Bolu Çimento — Bolu Cement Plant 2 (cement, cap 2,500,000 t/yr)</title></circle></a>
<a href="/bench/oyak-mardin/" target="_top"><circle cx="909.5" cy="380.3" r="12.5" fill="#2d5a4c" fill-opacity="0.78" stroke="none" stroke-width="0"><title>OYAK Çimento — Mardin Cement Plant (cement, cap 3,000,000 t/yr)</title></circle></a>
<a href="/bench/tosyali-iskenderun/" target="_top"><circle cx="651.6" cy="429.7" r="12.5" fill="#7a3b22" fill-opacity="0.78" stroke="none" stroke-width="0"><title>Tosyalı — İskenderun EAF Mill (steel, cap 3,000,000 t/yr)</title></circle></a>
<a href="/bench/oyak-unye/" target="_top"><circle cx="715.8" cy="102.6" r="12.6" fill="#2d5a4c" fill-opacity="0.78" stroke="none" stroke-width="0"><title>OYAK Çimento — Ünye Cement Plant (cement, cap 3,200,000 t/yr)</title></circle></a>
<a href="/bench/oyak-bolu/" target="_top"><circle cx="395.4" cy="131.6" r="12.9" fill="#2d5a4c" fill-opacity="0.78" stroke="none" stroke-width="0"><title>OYAK Çimento — Bolu Cement Plant (cement, cap 3,500,000 t/yr)</title></circle></a>
<a href="/bench/oyak-adana/" target="_top"><circle cx="604.3" cy="402.9" r="12.9" fill="#2d5a4c" fill-opacity="0.78" stroke="none" stroke-width="0"><title>OYAK Çimento — Adana Cement Plant (cement, cap 3,500,000 t/yr)</title></circle></a>
<a href="/bench/konya-cimento/" target="_top"><circle cx="446.1" cy="341.2" r="12.9" fill="#2d5a4c" fill-opacity="0.78" stroke="none" stroke-width="0"><title>Konya Çimento — Konya Cement Plant (cement, cap 3,500,000 t/yr)</title></circle></a>
<a href="/bench/adana-cimento/" target="_top"><circle cx="605.5" cy="404.3" r="12.9" fill="#2d5a4c" fill-opacity="0.78" stroke="none" stroke-width="0"><title>Adana Çimento — Adana T.A.Ş. (cement, cap 3,500,000 t/yr)</title></circle></a>
<a href="/bench/tosyali-osmaniye/" target="_top"><circle cx="657.8" cy="397.3" r="12.9" fill="#7a3b22" fill-opacity="0.78" stroke="none" stroke-width="0"><title>Tosyalı — Osmaniye DRI-EAF (steel, cap 3,500,000 t/yr)</title></circle></a>
<a href="/bench/icdas-biga/" target="_top"><circle cx="147.1" cy="156.8" r="12.9" fill="#7a3b22" fill-opacity="0.78" stroke="none" stroke-width="0"><title>İçdaş — Biga Çamlıca Plant (steel, cap 3,500,000 t/yr)</title></circle></a>
<a href="/bench/kardemir-karabuk/" target="_top"><circle cx="452.3" cy="97.3" r="12.9" fill="#7a3b22" fill-opacity="0.78" stroke="#14181d" stroke-width="1.6"><title>Kardemir — Karabük Integrated Works (steel, cap 3,500,000 t/yr); LODO ratio 1.00× truth</title></circle></a>
<a href="/bench/erdemir-eregli/" target="_top"><circle cx="383.6" cy="91.3" r="13.2" fill="#7a3b22" fill-opacity="0.78" stroke="#14181d" stroke-width="1.6"><title>Erdemir — Karadeniz Ereğli Integrated Works (steel, cap 4,000,000 t/yr); LODO ratio 1.19× truth</title></circle></a>
<a href="/bench/batisoke-soke/" target="_top"><circle cx="158.4" cy="349.1" r="13.2" fill="#2d5a4c" fill-opacity="0.78" stroke="#14181d" stroke-width="1.6"><title>Batısöke Söke Çimento — Söke Cement Plant (cement, cap 4,000,000 t/yr); LODO ratio 1.01× truth</title></circle></a>
<a href="/bench/colakoglu-gebze/" target="_top"><circle cx="276.0" cy="127.9" r="13.4" fill="#7a3b22" fill-opacity="0.78" stroke="#14181d" stroke-width="1.6"><title>Çolakoğlu — Gebze Dilovası Plant (steel, cap 4,500,000 t/yr); LODO ratio 1.06× truth</title></circle></a>
<a href="/bench/habas-aliaga/" target="_top"><circle cx="134.1" cy="274.5" r="13.4" fill="#7a3b22" fill-opacity="0.78" stroke="#14181d" stroke-width="1.6"><title>Habaş — Aliağa Plant (steel, cap 4,500,000 t/yr); LODO ratio 1.13× truth</title></circle></a>
<a href="/bench/goltas-isparta/" target="_top"><circle cx="335.7" cy="348.4" r="13.7" fill="#2d5a4c" fill-opacity="0.78" stroke="#14181d" stroke-width="1.6"><title>Göltaş Çimento — Isparta Cement Plant (cement, cap 5,000,000 t/yr); LODO ratio 1.17× truth</title></circle></a>
<a href="/bench/isdemir-iskenderun/" target="_top"><circle cx="652.8" cy="417.7" r="13.8" fill="#7a3b22" fill-opacity="0.78" stroke="#14181d" stroke-width="1.6"><title>İsdemir — İskenderun Integrated Works (steel, cap 5,300,000 t/yr); LODO ratio 0.83× truth</title></circle></a>
<a href="/bench/akcansa-canakkale/" target="_top"><circle cx="117.8" cy="160.9" r="13.9" fill="#2d5a4c" fill-opacity="0.78" stroke="#14181d" stroke-width="1.6"><title>Akçansa — Çanakkale Cement Plant (cement, cap 5,500,000 t/yr); LODO ratio 1.09× truth</title></circle></a>
<a href="/bench/nuh-hereke/" target="_top"><circle cx="285.1" cy="128.6" r="14.0" fill="#2d5a4c" fill-opacity="0.78" stroke="#14181d" stroke-width="1.6"><title>Nuh Çimento — Hereke Cement Plant (cement, cap 5,700,000 t/yr); LODO ratio 0.69× truth</title></circle></a>
<rect x="38" y="420" width="190" height="80" fill="#fbf7ee" stroke="#a89e90" stroke-width="0.5"/>
<text x="48" y="438" font-size="10" letter-spacing="0.15em" fill="#14181d" font-weight="600">CBAM SECTOR</text>
<circle cx="56" cy="450" r="5" fill="#2d5a4c" fill-opacity="0.78"/>
<text x="68" y="453" font-size="10" fill="#14181d">cement</text>
<circle cx="56" cy="464" r="5" fill="#7a3b22" fill-opacity="0.78"/>
<text x="68" y="467" font-size="10" fill="#14181d">steel</text>
<circle cx="56" cy="478" r="5" fill="#5a4a7a" fill-opacity="0.78"/>
<text x="68" y="481" font-size="10" fill="#14181d">aluminum</text>
<circle cx="56" cy="492" r="5" fill="#7a6a2d" fill-opacity="0.78"/>
<text x="68" y="495" font-size="10" fill="#14181d">fertilizer</text>
<text x="1170" y="488" text-anchor="end" font-size="10" fill="#a89e90">59 facilities · 21 LODO-tested (ink outline) · dot size ∝ log(capacity)</text>
<text x="1170" y="502" text-anchor="end" font-size="10" fill="#a89e90" font-style="italic">Web Mercator · coastline: Natural Earth 1:50m · click a dot for details</text>
</svg>