<svg xmlns="http://www.w3.org/2000/svg" viewBox="0 0 1320 560" style="font-family:Georgia,serif;background:#fbf7ee">
<rect x="0" y="0" width="1320" height="560" fill="#fbf7ee"/>
<text x="230" y="36" fill="#14181d" font-size="22pt" font-weight="600" letter-spacing="-0.02em">iz-1 per-plant CO₂ vs the EU CBAM default</text>
<text x="230" y="62" fill="#6e6862" font-size="11pt" font-style="italic">Leave-one-disclosure-out · 21 audit-grade Turkish facilities · all 4 CBAM scopes · 15 seeds per plant · log-MAE reduction 81.5% vs EU default</text>
<line x1="230" x2="1260" y1="450.0" y2="450.0" stroke="#d8cfbe" stroke-width="0.5"/>
<text x="218" y="454.0" text-anchor="end" font-size="9pt" fill="#6e6862">1,000</text>
<line x1="230" x2="1260" y1="378.0" y2="378.0" stroke="#d8cfbe" stroke-width="0.5"/>
<text x="218" y="382.0" text-anchor="end" font-size="9pt" fill="#6e6862">10k</text>
<line x1="230" x2="1260" y1="306.0" y2="306.0" stroke="#d8cfbe" stroke-width="0.5"/>
<text x="218" y="310.0" text-anchor="end" font-size="9pt" fill="#6e6862">100k</text>
<line x1="230" x2="1260" y1="234.0" y2="234.0" stroke="#d8cfbe" stroke-width="0.5"/>
<text x="218" y="238.0" text-anchor="end" font-size="9pt" fill="#6e6862">1M</text>
<line x1="230" x2="1260" y1="162.0" y2="162.0" stroke="#d8cfbe" stroke-width="0.5"/>
<text x="218" y="166.0" text-anchor="end" font-size="9pt" fill="#6e6862">10M</text>
<line x1="230" x2="1260" y1="90.0" y2="90.0" stroke="#d8cfbe" stroke-width="0.5"/>
<text x="218" y="94.0" text-anchor="end" font-size="9pt" fill="#6e6862">10^8</text>
<text x="180" y="270.0" transform="rotate(-90 180 270.0)" text-anchor="middle" font-size="10pt" fill="#6e6862" letter-spacing="0.12em">tCO₂ / yr (log)</text>
<rect x="233.67857142857144" y="252.13046205555352" width="41.69047619047619" height="197.86953794444648" fill="#b85c3f" opacity="0.18"/>
<rect x="233.67857142857144" y="352.7305352680969" width="41.69047619047619" height="97.2694647319031" fill="#2d5a4c" opacity="0.55"/>
<line x1="227.67857142857144" x2="281.36904761904765" y1="378.5425093578209" y2="378.5425093578209" stroke="#14181d" stroke-width="2"/>
<text x="254.52380952380955" y="468" text-anchor="end" font-size="8.5pt" fill="#14181d" transform="rotate(-32 254.52380952380955 468)">bagfas · bandirma</text>
<text x="254.52380952380955" y="346.7305352680969" text-anchor="middle" font-size="8pt" fill="#2d5a4c" font-weight="600">2.28×</text>
<rect x="282.7261904761905" y="247.95504187316007" width="41.69047619047619" height="202.04495812683993" fill="#b85c3f" opacity="0.18"/>
<rect x="282.7261904761905" y="370.0836302233976" width="41.69047619047619" height="79.91636977660238" fill="#2d5a4c" opacity="0.55"/>
<line x1="276.7261904761905" x2="330.41666666666663" y1="369.12738407770723" y2="369.12738407770723" stroke="#14181d" stroke-width="2"/>
<text x="303.57142857142856" y="468" text-anchor="end" font-size="8.5pt" fill="#14181d" transform="rotate(-32 303.57142857142856 468)">gubretas · izmit</text>
<text x="303.57142857142856" y="364.0836302233976" text-anchor="middle" font-size="8pt" fill="#2d5a4c" font-weight="600">0.97×</text>
<rect x="331.7738095238095" y="264.66974872360424" width="41.69047619047619" height="185.33025127639576" fill="#b85c3f" opacity="0.18"/>
<rect x="331.7738095238095" y="311.1684072225423" width="41.69047619047619" height="138.83159277745767" fill="#2d5a4c" opacity="0.55"/>
<line x1="325.7738095238095" x2="379.46428571428567" y1="317.7764599982868" y2="317.7764599982868" stroke="#14181d" stroke-width="2"/>
<text x="352.6190476190476" y="468" text-anchor="end" font-size="8.5pt" fill="#14181d" transform="rotate(-32 352.6190476190476 468)">asas · akyazi</text>
<text x="352.6190476190476" y="305.1684072225423" text-anchor="middle" font-size="8pt" fill="#2d5a4c" font-weight="600">1.24×</text>
<rect x="380.8214285714286" y="253.2676492927463" width="41.69047619047619" height="196.7323507072537" fill="#b85c3f" opacity="0.18"/>
<rect x="380.8214285714286" y="307.8676711163065" width="41.69047619047619" height="142.1323288836935" fill="#2d5a4c" opacity="0.55"/>
<line x1="374.8214285714286" x2="428.51190476190476" y1="303.4490588507125" y2="303.4490588507125" stroke="#14181d" stroke-width="2"/>
<text x="401.6666666666667" y="468" text-anchor="end" font-size="8.5pt" fill="#14181d" transform="rotate(-32 401.6666666666667 468)">assan · tuzla</text>
<text x="401.6666666666667" y="301.8676711163065" text-anchor="middle" font-size="8pt" fill="#2d5a4c" font-weight="600">0.87×</text>
<rect x="429.86904761904765" y="247.11816427447914" width="41.69047619047619" height="202.88183572552086" fill="#b85c3f" opacity="0.18"/>
<rect x="429.86904761904765" y="287.3398713288438" width="41.69047619047619" height="162.6601286711562" fill="#2d5a4c" opacity="0.55"/>
<line x1="423.86904761904765" x2="477.5595238095238" y1="283.7311624328215" y2="283.7311624328215" stroke="#14181d" stroke-width="2"/>
<text x="450.7142857142857" y="468" text-anchor="end" font-size="8.5pt" fill="#14181d" transform="rotate(-32 450.7142857142857 468)">toros · ceyhan</text>
<text x="450.7142857142857" y="281.3398713288438" text-anchor="middle" font-size="8pt" fill="#2d5a4c" font-weight="600">0.89×</text>
<rect x="478.9166666666667" y="258.28143611892665" width="41.69047619047619" height="191.71856388107335" fill="#b85c3f" opacity="0.18"/>
<rect x="478.9166666666667" y="289.22007453539254" width="41.69047619047619" height="160.77992546460746" fill="#2d5a4c" opacity="0.55"/>
<line x1="472.9166666666667" x2="526.6071428571429" y1="276.707042416968" y2="276.707042416968" stroke="#14181d" stroke-width="2"/>
<text x="499.76190476190476" y="468" text-anchor="end" font-size="8.5pt" fill="#14181d" transform="rotate(-32 499.76190476190476 468)">toros · samsun</text>
<text x="499.76190476190476" y="283.22007453539254" text-anchor="middle" font-size="8pt" fill="#2d5a4c" font-weight="600">0.67×</text>
<rect x="527.9642857142858" y="201.25117007938726" width="41.69047619047619" height="248.74882992061274" fill="#b85c3f" opacity="0.18"/>
<rect x="527.9642857142858" y="272.7422989285261" width="41.69047619047619" height="177.2577010714739" fill="#2d5a4c" opacity="0.55"/>
<line x1="521.9642857142858" x2="575.6547619047619" y1="274.8120219818782" y2="274.8120219818782" stroke="#14181d" stroke-width="2"/>
<text x="548.8095238095239" y="468" text-anchor="end" font-size="8.5pt" fill="#14181d" transform="rotate(-32 548.8095238095239 468)">izdemir · aliaga</text>
<text x="548.8095238095239" y="266.7422989285261" text-anchor="middle" font-size="8pt" fill="#2d5a4c" font-weight="600">1.07×</text>
<rect x="577.0119047619048" y="247.56659957731728" width="41.69047619047619" height="202.43340042268272" fill="#b85c3f" opacity="0.18"/>
<rect x="577.0119047619048" y="285.2079183608963" width="41.69047619047619" height="164.79208163910369" fill="#2d5a4c" opacity="0.55"/>
<line x1="571.0119047619048" x2="624.702380952381" y1="263.99744424772524" y2="263.99744424772524" stroke="#14181d" stroke-width="2"/>
<text x="597.8571428571429" y="468" text-anchor="end" font-size="8.5pt" fill="#14181d" transform="rotate(-32 597.8571428571429 468)">toros · mersin</text>
<text x="597.8571428571429" y="279.2079183608963" text-anchor="middle" font-size="8pt" fill="#2d5a4c" font-weight="600">0.51×</text>
<rect x="626.0595238095239" y="219.61762723774982" width="41.69047619047619" height="230.38237276225018" fill="#b85c3f" opacity="0.18"/>
<rect x="626.0595238095239" y="259.3254582064421" width="41.69047619047619" height="190.67454179355792" fill="#2d5a4c" opacity="0.55"/>
<line x1="620.0595238095239" x2="673.75" y1="255.7367607151159" y2="255.7367607151159" stroke="#14181d" stroke-width="2"/>
<text x="646.9047619047619" y="468" text-anchor="end" font-size="8.5pt" fill="#14181d" transform="rotate(-32 646.9047619047619 468)">akcansa · ladik</text>
<text x="646.9047619047619" y="253.32545820644208" text-anchor="middle" font-size="8pt" fill="#2d5a4c" font-weight="600">0.89×</text>
<rect x="675.1071428571429" y="166.8984397395716" width="41.69047619047619" height="283.1015602604284" fill="#b85c3f" opacity="0.18"/>
<rect x="675.1071428571429" y="248.2388727132354" width="41.69047619047619" height="201.7611272867646" fill="#2d5a4c" opacity="0.55"/>
<line x1="669.1071428571429" x2="722.797619047619" y1="251.7685574488011" y2="251.7685574488011" stroke="#14181d" stroke-width="2"/>
<text x="695.952380952381" y="468" text-anchor="end" font-size="8.5pt" fill="#14181d" transform="rotate(-32 695.952380952381 468)">colakoglu · gebze</text>
<text x="695.952380952381" y="242.2388727132354" text-anchor="middle" font-size="8pt" fill="#2d5a4c" font-weight="600">1.12×</text>
<rect x="724.1547619047619" y="166.8984397395716" width="41.69047619047619" height="283.1015602604284" fill="#b85c3f" opacity="0.18"/>
<rect x="724.1547619047619" y="239.40439086731774" width="41.69047619047619" height="210.59560913268226" fill="#2d5a4c" opacity="0.55"/>
<line x1="718.1547619047619" x2="771.8452380952381" y1="239.81364621748128" y2="239.81364621748128" stroke="#14181d" stroke-width="2"/>
<text x="745.0" y="468" text-anchor="end" font-size="8.5pt" fill="#14181d" transform="rotate(-32 745.0 468)">habas · aliaga</text>
<text x="745.0" y="233.40439086731774" text-anchor="middle" font-size="8pt" fill="#2d5a4c" font-weight="600">1.01×</text>
<rect x="773.202380952381" y="197.94346754994316" width="41.69047619047619" height="252.05653245005684" fill="#b85c3f" opacity="0.18"/>
<rect x="773.202380952381" y="253.91266939898628" width="41.69047619047619" height="196.08733060101372" fill="#2d5a4c" opacity="0.55"/>
<line x1="767.202380952381" x2="820.8928571428571" y1="230.4131973434736" y2="230.4131973434736" stroke="#14181d" stroke-width="2"/>
<text x="794.047619047619" y="468" text-anchor="end" font-size="8.5pt" fill="#14181d" transform="rotate(-32 794.047619047619 468)">bursa · cimento</text>
<text x="794.047619047619" y="247.91266939898628" text-anchor="middle" font-size="8pt" fill="#2d5a4c" font-weight="600">0.47×</text>
<rect x="822.2500000000001" y="201.23800687031178" width="41.69047619047619" height="248.76199312968822" fill="#b85c3f" opacity="0.18"/>
<rect x="822.2500000000001" y="245.06288162065493" width="41.69047619047619" height="204.93711837934507" fill="#2d5a4c" opacity="0.55"/>
<line x1="816.2500000000001" x2="869.9404761904763" y1="228.29895028457096" y2="228.29895028457096" stroke="#14181d" stroke-width="2"/>
<text x="843.0952380952382" y="468" text-anchor="end" font-size="8.5pt" fill="#14181d" transform="rotate(-32 843.0952380952382 468)">afyon · cimento</text>
<text x="843.0952380952382" y="239.06288162065493" text-anchor="middle" font-size="8pt" fill="#2d5a4c" font-weight="600">0.59×</text>
<rect x="871.2976190476192" y="190.9659466133631" width="41.69047619047619" height="259.0340533866369" fill="#b85c3f" opacity="0.18"/>
<rect x="871.2976190476192" y="216.5622502102818" width="41.69047619047619" height="233.4377497897182" fill="#2d5a4c" opacity="0.55"/>
<line x1="865.2976190476192" x2="918.9880952380953" y1="221.03093698818813" y2="221.03093698818813" stroke="#14181d" stroke-width="2"/>
<text x="892.1428571428572" y="468" text-anchor="end" font-size="8.5pt" fill="#14181d" transform="rotate(-32 892.1428571428572 468)">akcansa · buyukcekmece</text>
<text x="892.1428571428572" y="210.5622502102818" text-anchor="middle" font-size="8pt" fill="#2d5a4c" font-weight="600">1.15×</text>
<rect x="920.3452380952382" y="176.26930786213654" width="41.69047619047619" height="273.73069213786346" fill="#b85c3f" opacity="0.18"/>
<rect x="920.3452380952382" y="219.68086123846413" width="41.69047619047619" height="230.31913876153587" fill="#2d5a4c" opacity="0.55"/>
<line x1="914.3452380952382" x2="968.0357142857143" y1="219.73776247861613" y2="219.73776247861613" stroke="#14181d" stroke-width="2"/>
<text x="941.1904761904763" y="468" text-anchor="end" font-size="8.5pt" fill="#14181d" transform="rotate(-32 941.1904761904763 468)">batisoke · soke</text>
<text x="941.1904761904763" y="213.68086123846413" text-anchor="middle" font-size="8pt" fill="#2d5a4c" font-weight="600">1.00×</text>
<rect x="969.3928571428572" y="169.29178692555644" width="41.69047619047619" height="280.70821307444356" fill="#b85c3f" opacity="0.18"/>
<rect x="969.3928571428572" y="213.4877538906276" width="41.69047619047619" height="236.5122461093724" fill="#2d5a4c" opacity="0.55"/>
<line x1="963.3928571428572" x2="1017.0833333333334" y1="217.98179484715075" y2="217.98179484715075" stroke="#14181d" stroke-width="2"/>
<text x="990.2380952380953" y="468" text-anchor="end" font-size="8.5pt" fill="#14181d" transform="rotate(-32 990.2380952380953 468)">goltas · isparta</text>
<text x="990.2380952380953" y="207.4877538906276" text-anchor="middle" font-size="8pt" fill="#2d5a4c" font-weight="600">1.15×</text>
<rect x="1018.4404761904764" y="166.31151359416424" width="41.69047619047619" height="283.68848640583576" fill="#b85c3f" opacity="0.18"/>
<rect x="1018.4404761904764" y="190.4699571511424" width="41.69047619047619" height="259.5300428488576" fill="#2d5a4c" opacity="0.55"/>
<line x1="1012.4404761904764" x2="1066.1309523809525" y1="195.13234379679128" y2="195.13234379679128" stroke="#14181d" stroke-width="2"/>
<text x="1039.2857142857144" y="468" text-anchor="end" font-size="8.5pt" fill="#14181d" transform="rotate(-32 1039.2857142857144 468)">akcansa · canakkale</text>
<text x="1039.2857142857144" y="184.4699571511424" text-anchor="middle" font-size="8pt" fill="#2d5a4c" font-weight="600">1.16×</text>
<rect x="1067.4880952380954" y="165.19463762933043" width="41.69047619047619" height="284.80536237066957" fill="#b85c3f" opacity="0.18"/>
<rect x="1067.4880952380954" y="206.50542703800033" width="41.69047619047619" height="243.49457296199967" fill="#2d5a4c" opacity="0.55"/>
<line x1="1061.4880952380954" x2="1115.1785714285716" y1="194.17919000381593" y2="194.17919000381593" stroke="#14181d" stroke-width="2"/>
<text x="1088.3333333333335" y="468" text-anchor="end" font-size="8.5pt" fill="#14181d" transform="rotate(-32 1088.3333333333335 468)">nuh · hereke</text>
<text x="1088.3333333333335" y="200.50542703800033" text-anchor="middle" font-size="8pt" fill="#2d5a4c" font-weight="600">0.67×</text>
<rect x="1116.5357142857142" y="174.7568415381765" width="41.69047619047619" height="275.2431584618235" fill="#b85c3f" opacity="0.18"/>
<rect x="1116.5357142857142" y="180.04988026526837" width="41.69047619047619" height="269.95011973473163" fill="#2d5a4c" opacity="0.55"/>
<line x1="1110.5357142857142" x2="1164.2261904761904" y1="179.849047431943" y2="179.849047431943" stroke="#14181d" stroke-width="2"/>
<text x="1137.3809523809523" y="468" text-anchor="end" font-size="8.5pt" fill="#14181d" transform="rotate(-32 1137.3809523809523 468)">kardemir · karabuk</text>
<text x="1137.3809523809523" y="174.04988026526837" text-anchor="middle" font-size="8pt" fill="#2d5a4c" font-weight="600">0.99×</text>
<rect x="1165.5833333333335" y="170.58142135578305" width="41.69047619047619" height="279.41857864421695" fill="#b85c3f" opacity="0.18"/>
<rect x="1165.5833333333335" y="170.41809266584585" width="41.69047619047619" height="279.58190733415415" fill="#2d5a4c" opacity="0.55"/>
<line x1="1159.5833333333335" x2="1213.2738095238096" y1="174.6476325785336" y2="174.6476325785336" stroke="#14181d" stroke-width="2"/>
<text x="1186.4285714285716" y="468" text-anchor="end" font-size="8.5pt" fill="#14181d" transform="rotate(-32 1186.4285714285716 468)">erdemir · eregli</text>
<text x="1186.4285714285716" y="164.41809266584585" text-anchor="middle" font-size="8pt" fill="#2d5a4c" font-weight="600">1.14×</text>
<rect x="1214.6309523809523" y="161.78187812013954" width="41.69047619047619" height="288.21812187986046" fill="#b85c3f" opacity="0.18"/>
<rect x="1214.6309523809523" y="178.33755747803502" width="41.69047619047619" height="271.662442521965" fill="#2d5a4c" opacity="0.55"/>
<line x1="1208.6309523809523" x2="1262.3214285714284" y1="159.99161512682934" y2="159.99161512682934" stroke="#14181d" stroke-width="2"/>
<text x="1235.4761904761904" y="468" text-anchor="end" font-size="8.5pt" fill="#14181d" transform="rotate(-32 1235.4761904761904 468)">isdemir · iskenderun</text>
<text x="1235.4761904761904" y="172.33755747803502" text-anchor="middle" font-size="8pt" fill="#2d5a4c" font-weight="600">0.56×</text>
<rect x="238" y="94" width="14" height="14" fill="#b85c3f" opacity="0.18"/>
<text x="260" y="104" font-size="10pt" fill="#14181d">EU CBAM default (capacity × default EF)</text>
<rect x="238" y="114" width="14" height="14" fill="#2d5a4c" opacity="0.55"/>
<text x="260" y="124" font-size="10pt" fill="#14181d">iz-1 prediction (median of 3 seeds)</text>
<line x1="238" x2="252" y1="141" y2="141" stroke="#14181d" stroke-width="2"/>
<text x="260" y="144" font-size="10pt" fill="#14181d">Disclosed truth (Scope 1 from IAR / sustainability report)</text>
<rect x="980" y="96" width="280" height="74" fill="#fbf7ee" stroke="#d8cfbe"/>
<text x="992" y="118" font-size="9pt" letter-spacing="0.16em" fill="#6e6862" text-transform="uppercase">PER-PLANT LOG-MAE</text>
<text x="992" y="140" font-size="14pt" fill="#14181d"><tspan font-weight="600" fill="#2d5a4c">iz-1</tspan> 0.265   |   <tspan fill="#b85c3f">EU</tspan> 1.432</text>
<text x="992" y="160" font-size="13pt" fill="#2d5a4c" font-weight="600">81.5% reduction</text>
</svg>