<?xml version="1.0" encoding="utf-8" standalone="no"?>
<!DOCTYPE svg PUBLIC "-//W3C//DTD SVG 1.1//EN"
  "http://www.w3.org/Graphics/SVG/1.1/DTD/svg11.dtd">
<svg xmlns:xlink="http://www.w3.org/1999/xlink" width="864pt" height="374.4pt" viewBox="0 0 864 374.4" xmlns="http://www.w3.org/2000/svg" version="1.1">
 <metadata>
  <rdf:RDF xmlns:dc="http://purl.org/dc/elements/1.1/" xmlns:cc="http://creativecommons.org/ns#" xmlns:rdf="http://www.w3.org/1999/02/22-rdf-syntax-ns#">
   <cc:Work>
    <dc:type rdf:resource="http://purl.org/dc/dcmitype/StillImage"/>
    <dc:date>2026-07-01T15:55:28.828906</dc:date>
    <dc:format>image/svg+xml</dc:format>
    <dc:creator>
     <cc:Agent>
      <dc:title>Matplotlib v3.10.9, https://matplotlib.org/</dc:title>
     </cc:Agent>
    </dc:creator>
   </cc:Work>
  </rdf:RDF>
 </metadata>
 <defs>
  <style type="text/css">*{stroke-linejoin: round; stroke-linecap: butt}</style>
 </defs>
 <g id="figure_1">
  <g id="patch_1">
   <path d="M 0 374.4 
L 864 374.4 
L 864 0 
L 0 0 
z
" style="fill: #fbf7ee"/>
  </g>
  <g id="axes_1">
   <g id="patch_2">
    <path d="M 50.092685 310.652201 
L 853.2 310.652201 
L 853.2 43.968 
L 50.092685 43.968 
z
" style="fill: #fbf7ee"/>
   </g>
   <g id="matplotlib.axis_1">
    <g id="xtick_1">
     <g id="line2d_1">
      <defs>
       <path id="m2192e726b4" d="M 0 0 
L 0 3.5 
" style="stroke: #14181d; stroke-width: 0.8"/>
      </defs>
      <g>
       <use xlink:href="#m2192e726b4" x="102.131553" y="310.652201" style="fill: #14181d; stroke: #14181d; stroke-width: 0.8"/>
      </g>
     </g>
     <g id="text_1">
      <!-- ASAŞ -->
      <g style="fill: #14181d" transform="translate(85.927318 336.978314) rotate(-45) scale(0.08 -0.08)">
       <defs>
        <path id="DejaVuSans-41" d="M 2188 4044 
L 1331 1722 
L 3047 1722 
L 2188 4044 
z
M 1831 4666 
L 2547 4666 
L 4325 0 
L 3669 0 
L 3244 1197 
L 1141 1197 
L 716 0 
L 50 0 
L 1831 4666 
z
" transform="scale(0.015625)"/>
        <path id="DejaVuSans-53" d="M 3425 4513 
L 3425 3897 
Q 3066 4069 2747 4153 
Q 2428 4238 2131 4238 
Q 1616 4238 1336 4038 
Q 1056 3838 1056 3469 
Q 1056 3159 1242 3001 
Q 1428 2844 1947 2747 
L 2328 2669 
Q 3034 2534 3370 2195 
Q 3706 1856 3706 1288 
Q 3706 609 3251 259 
Q 2797 -91 1919 -91 
Q 1588 -91 1214 -16 
Q 841 59 441 206 
L 441 856 
Q 825 641 1194 531 
Q 1563 422 1919 422 
Q 2459 422 2753 634 
Q 3047 847 3047 1241 
Q 3047 1584 2836 1778 
Q 2625 1972 2144 2069 
L 1759 2144 
Q 1053 2284 737 2584 
Q 422 2884 422 3419 
Q 422 4038 858 4394 
Q 1294 4750 2059 4750 
Q 2388 4750 2728 4690 
Q 3069 4631 3425 4513 
z
" transform="scale(0.015625)"/>
        <path id="DejaVuSans-15e" d="M 3425 4513 
L 3425 3897 
Q 3066 4069 2747 4153 
Q 2428 4238 2131 4238 
Q 1616 4238 1336 4038 
Q 1056 3838 1056 3469 
Q 1056 3159 1242 3001 
Q 1428 2844 1947 2747 
L 2328 2669 
Q 3034 2534 3370 2195 
Q 3706 1856 3706 1288 
Q 3706 609 3251 259 
Q 2797 -91 1919 -91 
Q 1588 -91 1214 -16 
Q 841 59 441 206 
L 441 856 
Q 825 641 1194 531 
Q 1563 422 1919 422 
Q 2459 422 2753 634 
Q 3047 847 3047 1241 
Q 3047 1584 2836 1778 
Q 2625 1972 2144 2069 
L 1759 2144 
Q 1053 2284 737 2584 
Q 422 2884 422 3419 
Q 422 4038 858 4394 
Q 1294 4750 2059 4750 
Q 2388 4750 2728 4690 
Q 3069 4631 3425 4513 
z
M 2295 0 
Q 2466 -194 2550 -358 
Q 2635 -522 2635 -672 
Q 2635 -950 2447 -1092 
Q 2260 -1234 1891 -1234 
Q 1748 -1234 1612 -1215 
Q 1476 -1197 1341 -1159 
L 1341 -750 
Q 1448 -803 1563 -826 
Q 1679 -850 1826 -850 
Q 2010 -850 2104 -775 
Q 2198 -700 2198 -556 
Q 2198 -463 2130 -327 
Q 2063 -191 1923 0 
L 2295 0 
z
" transform="scale(0.015625)"/>
       </defs>
       <use xlink:href="#DejaVuSans-41"/>
       <use xlink:href="#DejaVuSans-53" transform="translate(68.408203 0)"/>
       <use xlink:href="#DejaVuSans-41" transform="translate(133.759766 0)"/>
       <use xlink:href="#DejaVuSans-15e" transform="translate(202.167969 0)"/>
      </g>
     </g>
    </g>
    <g id="xtick_2">
     <g id="line2d_2">
      <g>
       <use xlink:href="#m2192e726b4" x="140.96653" y="310.652201" style="fill: #14181d; stroke: #14181d; stroke-width: 0.8"/>
      </g>
     </g>
     <g id="text_2">
      <!-- Assan -->
      <g style="fill: #14181d" transform="translate(122.975082 338.765526) rotate(-45) scale(0.08 -0.08)">
       <defs>
        <path id="DejaVuSans-73" d="M 2834 3397 
L 2834 2853 
Q 2591 2978 2328 3040 
Q 2066 3103 1784 3103 
Q 1356 3103 1142 2972 
Q 928 2841 928 2578 
Q 928 2378 1081 2264 
Q 1234 2150 1697 2047 
L 1894 2003 
Q 2506 1872 2764 1633 
Q 3022 1394 3022 966 
Q 3022 478 2636 193 
Q 2250 -91 1575 -91 
Q 1294 -91 989 -36 
Q 684 19 347 128 
L 347 722 
Q 666 556 975 473 
Q 1284 391 1588 391 
Q 1994 391 2212 530 
Q 2431 669 2431 922 
Q 2431 1156 2273 1281 
Q 2116 1406 1581 1522 
L 1381 1569 
Q 847 1681 609 1914 
Q 372 2147 372 2553 
Q 372 3047 722 3315 
Q 1072 3584 1716 3584 
Q 2034 3584 2315 3537 
Q 2597 3491 2834 3397 
z
" transform="scale(0.015625)"/>
        <path id="DejaVuSans-61" d="M 2194 1759 
Q 1497 1759 1228 1600 
Q 959 1441 959 1056 
Q 959 750 1161 570 
Q 1363 391 1709 391 
Q 2188 391 2477 730 
Q 2766 1069 2766 1631 
L 2766 1759 
L 2194 1759 
z
M 3341 1997 
L 3341 0 
L 2766 0 
L 2766 531 
Q 2569 213 2275 61 
Q 1981 -91 1556 -91 
Q 1019 -91 701 211 
Q 384 513 384 1019 
Q 384 1609 779 1909 
Q 1175 2209 1959 2209 
L 2766 2209 
L 2766 2266 
Q 2766 2663 2505 2880 
Q 2244 3097 1772 3097 
Q 1472 3097 1187 3025 
Q 903 2953 641 2809 
L 641 3341 
Q 956 3463 1253 3523 
Q 1550 3584 1831 3584 
Q 2591 3584 2966 3190 
Q 3341 2797 3341 1997 
z
" transform="scale(0.015625)"/>
        <path id="DejaVuSans-6e" d="M 3513 2113 
L 3513 0 
L 2938 0 
L 2938 2094 
Q 2938 2591 2744 2837 
Q 2550 3084 2163 3084 
Q 1697 3084 1428 2787 
Q 1159 2491 1159 1978 
L 1159 0 
L 581 0 
L 581 3500 
L 1159 3500 
L 1159 2956 
Q 1366 3272 1645 3428 
Q 1925 3584 2291 3584 
Q 2894 3584 3203 3211 
Q 3513 2838 3513 2113 
z
" transform="scale(0.015625)"/>
       </defs>
       <use xlink:href="#DejaVuSans-41"/>
       <use xlink:href="#DejaVuSans-73" transform="translate(68.408203 0)"/>
       <use xlink:href="#DejaVuSans-73" transform="translate(120.507812 0)"/>
       <use xlink:href="#DejaVuSans-61" transform="translate(172.607422 0)"/>
       <use xlink:href="#DejaVuSans-6e" transform="translate(233.886719 0)"/>
      </g>
     </g>
    </g>
    <g id="xtick_3">
     <g id="line2d_3">
      <g>
       <use xlink:href="#m2192e726b4" x="179.801506" y="310.652201" style="fill: #14181d; stroke: #14181d; stroke-width: 0.8"/>
      </g>
     </g>
     <g id="text_3">
      <!-- Toros Ceyhan -->
      <g style="fill: #14181d" transform="translate(140.850529 359.725055) rotate(-45) scale(0.08 -0.08)">
       <defs>
        <path id="DejaVuSans-54" d="M -19 4666 
L 3928 4666 
L 3928 4134 
L 2272 4134 
L 2272 0 
L 1638 0 
L 1638 4134 
L -19 4134 
L -19 4666 
z
" transform="scale(0.015625)"/>
        <path id="DejaVuSans-6f" d="M 1959 3097 
Q 1497 3097 1228 2736 
Q 959 2375 959 1747 
Q 959 1119 1226 758 
Q 1494 397 1959 397 
Q 2419 397 2687 759 
Q 2956 1122 2956 1747 
Q 2956 2369 2687 2733 
Q 2419 3097 1959 3097 
z
M 1959 3584 
Q 2709 3584 3137 3096 
Q 3566 2609 3566 1747 
Q 3566 888 3137 398 
Q 2709 -91 1959 -91 
Q 1206 -91 779 398 
Q 353 888 353 1747 
Q 353 2609 779 3096 
Q 1206 3584 1959 3584 
z
" transform="scale(0.015625)"/>
        <path id="DejaVuSans-72" d="M 2631 2963 
Q 2534 3019 2420 3045 
Q 2306 3072 2169 3072 
Q 1681 3072 1420 2755 
Q 1159 2438 1159 1844 
L 1159 0 
L 581 0 
L 581 3500 
L 1159 3500 
L 1159 2956 
Q 1341 3275 1631 3429 
Q 1922 3584 2338 3584 
Q 2397 3584 2469 3576 
Q 2541 3569 2628 3553 
L 2631 2963 
z
" transform="scale(0.015625)"/>
        <path id="DejaVuSans-20" transform="scale(0.015625)"/>
        <path id="DejaVuSans-43" d="M 4122 4306 
L 4122 3641 
Q 3803 3938 3442 4084 
Q 3081 4231 2675 4231 
Q 1875 4231 1450 3742 
Q 1025 3253 1025 2328 
Q 1025 1406 1450 917 
Q 1875 428 2675 428 
Q 3081 428 3442 575 
Q 3803 722 4122 1019 
L 4122 359 
Q 3791 134 3420 21 
Q 3050 -91 2638 -91 
Q 1578 -91 968 557 
Q 359 1206 359 2328 
Q 359 3453 968 4101 
Q 1578 4750 2638 4750 
Q 3056 4750 3426 4639 
Q 3797 4528 4122 4306 
z
" transform="scale(0.015625)"/>
        <path id="DejaVuSans-65" d="M 3597 1894 
L 3597 1613 
L 953 1613 
Q 991 1019 1311 708 
Q 1631 397 2203 397 
Q 2534 397 2845 478 
Q 3156 559 3463 722 
L 3463 178 
Q 3153 47 2828 -22 
Q 2503 -91 2169 -91 
Q 1331 -91 842 396 
Q 353 884 353 1716 
Q 353 2575 817 3079 
Q 1281 3584 2069 3584 
Q 2775 3584 3186 3129 
Q 3597 2675 3597 1894 
z
M 3022 2063 
Q 3016 2534 2758 2815 
Q 2500 3097 2075 3097 
Q 1594 3097 1305 2825 
Q 1016 2553 972 2059 
L 3022 2063 
z
" transform="scale(0.015625)"/>
        <path id="DejaVuSans-79" d="M 2059 -325 
Q 1816 -950 1584 -1140 
Q 1353 -1331 966 -1331 
L 506 -1331 
L 506 -850 
L 844 -850 
Q 1081 -850 1212 -737 
Q 1344 -625 1503 -206 
L 1606 56 
L 191 3500 
L 800 3500 
L 1894 763 
L 2988 3500 
L 3597 3500 
L 2059 -325 
z
" transform="scale(0.015625)"/>
        <path id="DejaVuSans-68" d="M 3513 2113 
L 3513 0 
L 2938 0 
L 2938 2094 
Q 2938 2591 2744 2837 
Q 2550 3084 2163 3084 
Q 1697 3084 1428 2787 
Q 1159 2491 1159 1978 
L 1159 0 
L 581 0 
L 581 4863 
L 1159 4863 
L 1159 2956 
Q 1366 3272 1645 3428 
Q 1925 3584 2291 3584 
Q 2894 3584 3203 3211 
Q 3513 2838 3513 2113 
z
" transform="scale(0.015625)"/>
       </defs>
       <use xlink:href="#DejaVuSans-54"/>
       <use xlink:href="#DejaVuSans-6f" transform="translate(44.083984 0)"/>
       <use xlink:href="#DejaVuSans-72" transform="translate(105.265625 0)"/>
       <use xlink:href="#DejaVuSans-6f" transform="translate(144.128906 0)"/>
       <use xlink:href="#DejaVuSans-73" transform="translate(205.310547 0)"/>
       <use xlink:href="#DejaVuSans-20" transform="translate(257.410156 0)"/>
       <use xlink:href="#DejaVuSans-43" transform="translate(289.197266 0)"/>
       <use xlink:href="#DejaVuSans-65" transform="translate(359.021484 0)"/>
       <use xlink:href="#DejaVuSans-79" transform="translate(420.544922 0)"/>
       <use xlink:href="#DejaVuSans-68" transform="translate(479.724609 0)"/>
       <use xlink:href="#DejaVuSans-61" transform="translate(543.103516 0)"/>
       <use xlink:href="#DejaVuSans-6e" transform="translate(604.382812 0)"/>
      </g>
     </g>
    </g>
    <g id="xtick_4">
     <g id="line2d_4">
      <g>
       <use xlink:href="#m2192e726b4" x="218.636483" y="310.652201" style="fill: #14181d; stroke: #14181d; stroke-width: 0.8"/>
      </g>
     </g>
     <g id="text_4">
      <!-- Toros Samsun -->
      <g style="fill: #14181d" transform="translate(178.416249 360.994312) rotate(-45) scale(0.08 -0.08)">
       <defs>
        <path id="DejaVuSans-6d" d="M 3328 2828 
Q 3544 3216 3844 3400 
Q 4144 3584 4550 3584 
Q 5097 3584 5394 3201 
Q 5691 2819 5691 2113 
L 5691 0 
L 5113 0 
L 5113 2094 
Q 5113 2597 4934 2840 
Q 4756 3084 4391 3084 
Q 3944 3084 3684 2787 
Q 3425 2491 3425 1978 
L 3425 0 
L 2847 0 
L 2847 2094 
Q 2847 2600 2669 2842 
Q 2491 3084 2119 3084 
Q 1678 3084 1418 2786 
Q 1159 2488 1159 1978 
L 1159 0 
L 581 0 
L 581 3500 
L 1159 3500 
L 1159 2956 
Q 1356 3278 1631 3431 
Q 1906 3584 2284 3584 
Q 2666 3584 2933 3390 
Q 3200 3197 3328 2828 
z
" transform="scale(0.015625)"/>
        <path id="DejaVuSans-75" d="M 544 1381 
L 544 3500 
L 1119 3500 
L 1119 1403 
Q 1119 906 1312 657 
Q 1506 409 1894 409 
Q 2359 409 2629 706 
Q 2900 1003 2900 1516 
L 2900 3500 
L 3475 3500 
L 3475 0 
L 2900 0 
L 2900 538 
Q 2691 219 2414 64 
Q 2138 -91 1772 -91 
Q 1169 -91 856 284 
Q 544 659 544 1381 
z
M 1991 3584 
L 1991 3584 
z
" transform="scale(0.015625)"/>
       </defs>
       <use xlink:href="#DejaVuSans-54"/>
       <use xlink:href="#DejaVuSans-6f" transform="translate(44.083984 0)"/>
       <use xlink:href="#DejaVuSans-72" transform="translate(105.265625 0)"/>
       <use xlink:href="#DejaVuSans-6f" transform="translate(144.128906 0)"/>
       <use xlink:href="#DejaVuSans-73" transform="translate(205.310547 0)"/>
       <use xlink:href="#DejaVuSans-20" transform="translate(257.410156 0)"/>
       <use xlink:href="#DejaVuSans-53" transform="translate(289.197266 0)"/>
       <use xlink:href="#DejaVuSans-61" transform="translate(352.673828 0)"/>
       <use xlink:href="#DejaVuSans-6d" transform="translate(413.953125 0)"/>
       <use xlink:href="#DejaVuSans-73" transform="translate(511.365234 0)"/>
       <use xlink:href="#DejaVuSans-75" transform="translate(563.464844 0)"/>
       <use xlink:href="#DejaVuSans-6e" transform="translate(626.84375 0)"/>
      </g>
     </g>
    </g>
    <g id="xtick_5">
     <g id="line2d_5">
      <g>
       <use xlink:href="#m2192e726b4" x="257.47146" y="310.652201" style="fill: #14181d; stroke: #14181d; stroke-width: 0.8"/>
      </g>
     </g>
     <g id="text_5">
      <!-- İzdemir -->
      <g style="fill: #14181d" transform="translate(235.178151 343.067387) rotate(-45) scale(0.08 -0.08)">
       <defs>
        <path id="DejaVuSans-130" d="M 628 4666 
L 1259 4666 
L 1259 0 
L 628 0 
L 628 4666 
z
M 625 5836 
L 1263 5836 
L 1263 5196 
L 625 5196 
L 625 5836 
z
" transform="scale(0.015625)"/>
        <path id="DejaVuSans-7a" d="M 353 3500 
L 3084 3500 
L 3084 2975 
L 922 459 
L 3084 459 
L 3084 0 
L 275 0 
L 275 525 
L 2438 3041 
L 353 3041 
L 353 3500 
z
" transform="scale(0.015625)"/>
        <path id="DejaVuSans-64" d="M 2906 2969 
L 2906 4863 
L 3481 4863 
L 3481 0 
L 2906 0 
L 2906 525 
Q 2725 213 2448 61 
Q 2172 -91 1784 -91 
Q 1150 -91 751 415 
Q 353 922 353 1747 
Q 353 2572 751 3078 
Q 1150 3584 1784 3584 
Q 2172 3584 2448 3432 
Q 2725 3281 2906 2969 
z
M 947 1747 
Q 947 1113 1208 752 
Q 1469 391 1925 391 
Q 2381 391 2643 752 
Q 2906 1113 2906 1747 
Q 2906 2381 2643 2742 
Q 2381 3103 1925 3103 
Q 1469 3103 1208 2742 
Q 947 2381 947 1747 
z
" transform="scale(0.015625)"/>
        <path id="DejaVuSans-69" d="M 603 3500 
L 1178 3500 
L 1178 0 
L 603 0 
L 603 3500 
z
M 603 4863 
L 1178 4863 
L 1178 4134 
L 603 4134 
L 603 4863 
z
" transform="scale(0.015625)"/>
       </defs>
       <use xlink:href="#DejaVuSans-130"/>
       <use xlink:href="#DejaVuSans-7a" transform="translate(29.492188 0)"/>
       <use xlink:href="#DejaVuSans-64" transform="translate(81.982422 0)"/>
       <use xlink:href="#DejaVuSans-65" transform="translate(145.458984 0)"/>
       <use xlink:href="#DejaVuSans-6d" transform="translate(206.982422 0)"/>
       <use xlink:href="#DejaVuSans-69" transform="translate(304.394531 0)"/>
       <use xlink:href="#DejaVuSans-72" transform="translate(332.177734 0)"/>
      </g>
     </g>
    </g>
    <g id="xtick_6">
     <g id="line2d_6">
      <g>
       <use xlink:href="#m2192e726b4" x="296.306436" y="310.652201" style="fill: #14181d; stroke: #14181d; stroke-width: 0.8"/>
      </g>
     </g>
     <g id="text_6">
      <!-- Toros Mersin -->
      <g style="fill: #14181d" transform="translate(259.980593 357.099921) rotate(-45) scale(0.08 -0.08)">
       <defs>
        <path id="DejaVuSans-4d" d="M 628 4666 
L 1569 4666 
L 2759 1491 
L 3956 4666 
L 4897 4666 
L 4897 0 
L 4281 0 
L 4281 4097 
L 3078 897 
L 2444 897 
L 1241 4097 
L 1241 0 
L 628 0 
L 628 4666 
z
" transform="scale(0.015625)"/>
       </defs>
       <use xlink:href="#DejaVuSans-54"/>
       <use xlink:href="#DejaVuSans-6f" transform="translate(44.083984 0)"/>
       <use xlink:href="#DejaVuSans-72" transform="translate(105.265625 0)"/>
       <use xlink:href="#DejaVuSans-6f" transform="translate(144.128906 0)"/>
       <use xlink:href="#DejaVuSans-73" transform="translate(205.310547 0)"/>
       <use xlink:href="#DejaVuSans-20" transform="translate(257.410156 0)"/>
       <use xlink:href="#DejaVuSans-4d" transform="translate(289.197266 0)"/>
       <use xlink:href="#DejaVuSans-65" transform="translate(375.476562 0)"/>
       <use xlink:href="#DejaVuSans-72" transform="translate(437 0)"/>
       <use xlink:href="#DejaVuSans-73" transform="translate(478.113281 0)"/>
       <use xlink:href="#DejaVuSans-69" transform="translate(530.212891 0)"/>
       <use xlink:href="#DejaVuSans-6e" transform="translate(557.996094 0)"/>
      </g>
     </g>
    </g>
    <g id="xtick_7">
     <g id="line2d_7">
      <g>
       <use xlink:href="#m2192e726b4" x="335.141413" y="310.652201" style="fill: #14181d; stroke: #14181d; stroke-width: 0.8"/>
      </g>
     </g>
     <g id="text_7">
      <!-- Akçansa Ladik -->
      <g style="fill: #14181d" transform="translate(293.389409 362.526082) rotate(-45) scale(0.08 -0.08)">
       <defs>
        <path id="DejaVuSans-6b" d="M 581 4863 
L 1159 4863 
L 1159 1991 
L 2875 3500 
L 3609 3500 
L 1753 1863 
L 3688 0 
L 2938 0 
L 1159 1709 
L 1159 0 
L 581 0 
L 581 4863 
z
" transform="scale(0.015625)"/>
        <path id="DejaVuSans-e7" d="M 3122 3366 
L 3122 2828 
Q 2878 2963 2633 3030 
Q 2388 3097 2138 3097 
Q 1578 3097 1268 2742 
Q 959 2388 959 1747 
Q 959 1106 1268 751 
Q 1578 397 2138 397 
Q 2388 397 2633 464 
Q 2878 531 3122 666 
L 3122 134 
Q 2881 22 2623 -34 
Q 2366 -91 2075 -91 
Q 1284 -91 818 406 
Q 353 903 353 1747 
Q 353 2603 823 3093 
Q 1294 3584 2113 3584 
Q 2378 3584 2631 3529 
Q 2884 3475 3122 3366 
z
M 2311 0 
Q 2482 -194 2566 -358 
Q 2651 -522 2651 -672 
Q 2651 -950 2463 -1092 
Q 2276 -1234 1907 -1234 
Q 1764 -1234 1628 -1215 
Q 1492 -1197 1357 -1159 
L 1357 -750 
Q 1464 -803 1579 -826 
Q 1695 -850 1842 -850 
Q 2026 -850 2120 -775 
Q 2214 -700 2214 -556 
Q 2214 -463 2146 -327 
Q 2079 -191 1939 0 
L 2311 0 
z
" transform="scale(0.015625)"/>
        <path id="DejaVuSans-4c" d="M 628 4666 
L 1259 4666 
L 1259 531 
L 3531 531 
L 3531 0 
L 628 0 
L 628 4666 
z
" transform="scale(0.015625)"/>
       </defs>
       <use xlink:href="#DejaVuSans-41"/>
       <use xlink:href="#DejaVuSans-6b" transform="translate(68.408203 0)"/>
       <use xlink:href="#DejaVuSans-e7" transform="translate(126.318359 0)"/>
       <use xlink:href="#DejaVuSans-61" transform="translate(181.298828 0)"/>
       <use xlink:href="#DejaVuSans-6e" transform="translate(242.578125 0)"/>
       <use xlink:href="#DejaVuSans-73" transform="translate(305.957031 0)"/>
       <use xlink:href="#DejaVuSans-61" transform="translate(358.056641 0)"/>
       <use xlink:href="#DejaVuSans-20" transform="translate(419.335938 0)"/>
       <use xlink:href="#DejaVuSans-4c" transform="translate(451.123047 0)"/>
       <use xlink:href="#DejaVuSans-61" transform="translate(506.835938 0)"/>
       <use xlink:href="#DejaVuSans-64" transform="translate(568.115234 0)"/>
       <use xlink:href="#DejaVuSans-69" transform="translate(631.591797 0)"/>
       <use xlink:href="#DejaVuSans-6b" transform="translate(659.375 0)"/>
      </g>
     </g>
    </g>
    <g id="xtick_8">
     <g id="line2d_8">
      <g>
       <use xlink:href="#m2192e726b4" x="373.976389" y="310.652201" style="fill: #14181d; stroke: #14181d; stroke-width: 0.8"/>
      </g>
     </g>
     <g id="text_8">
      <!-- Çolakoğlu -->
      <g style="fill: #14181d" transform="translate(345.070748 349.822908) rotate(-45) scale(0.08 -0.08)">
       <defs>
        <path id="DejaVuSans-c7" d="M 4122 4306 
L 4122 3641 
Q 3803 3938 3442 4084 
Q 3081 4231 2675 4231 
Q 1875 4231 1450 3742 
Q 1025 3253 1025 2328 
Q 1025 1406 1450 917 
Q 1875 428 2675 428 
Q 3081 428 3442 575 
Q 3803 722 4122 1019 
L 4122 359 
Q 3791 134 3420 21 
Q 3050 -91 2638 -91 
Q 1578 -91 968 557 
Q 359 1206 359 2328 
Q 359 3453 968 4101 
Q 1578 4750 2638 4750 
Q 3056 4750 3426 4639 
Q 3797 4528 4122 4306 
z
M 2807 0 
Q 2978 -194 3062 -358 
Q 3147 -522 3147 -672 
Q 3147 -950 2959 -1092 
Q 2772 -1234 2403 -1234 
Q 2260 -1234 2124 -1215 
Q 1988 -1197 1853 -1159 
L 1853 -750 
Q 1960 -803 2075 -826 
Q 2191 -850 2338 -850 
Q 2522 -850 2616 -775 
Q 2710 -700 2710 -556 
Q 2710 -463 2642 -327 
Q 2575 -191 2435 0 
L 2807 0 
z
" transform="scale(0.015625)"/>
        <path id="DejaVuSans-6c" d="M 603 4863 
L 1178 4863 
L 1178 0 
L 603 0 
L 603 4863 
z
" transform="scale(0.015625)"/>
        <path id="DejaVuSans-11f" d="M 2906 1791 
Q 2906 2416 2648 2759 
Q 2391 3103 1925 3103 
Q 1463 3103 1205 2759 
Q 947 2416 947 1791 
Q 947 1169 1205 825 
Q 1463 481 1925 481 
Q 2391 481 2648 825 
Q 2906 1169 2906 1791 
z
M 3481 434 
Q 3481 -459 3084 -895 
Q 2688 -1331 1869 -1331 
Q 1566 -1331 1297 -1286 
Q 1028 -1241 775 -1147 
L 775 -588 
Q 1028 -725 1275 -790 
Q 1522 -856 1778 -856 
Q 2344 -856 2625 -561 
Q 2906 -266 2906 331 
L 2906 616 
Q 2728 306 2450 153 
Q 2172 0 1784 0 
Q 1141 0 747 490 
Q 353 981 353 1791 
Q 353 2603 747 3093 
Q 1141 3584 1784 3584 
Q 2172 3584 2450 3431 
Q 2728 3278 2906 2969 
L 2906 3500 
L 3481 3500 
L 3481 434 
z
M 1054 5025 
L 1423 5025 
Q 1457 4791 1608 4673 
Q 1760 4556 2032 4556 
Q 2301 4556 2451 4672 
Q 2601 4788 2641 5025 
L 3010 5025 
Q 2979 4578 2732 4353 
Q 2485 4128 2032 4128 
Q 1579 4128 1332 4353 
Q 1085 4578 1054 5025 
z
" transform="scale(0.015625)"/>
       </defs>
       <use xlink:href="#DejaVuSans-c7"/>
       <use xlink:href="#DejaVuSans-6f" transform="translate(69.824219 0)"/>
       <use xlink:href="#DejaVuSans-6c" transform="translate(131.005859 0)"/>
       <use xlink:href="#DejaVuSans-61" transform="translate(158.789062 0)"/>
       <use xlink:href="#DejaVuSans-6b" transform="translate(220.068359 0)"/>
       <use xlink:href="#DejaVuSans-6f" transform="translate(274.353516 0)"/>
       <use xlink:href="#DejaVuSans-11f" transform="translate(335.535156 0)"/>
       <use xlink:href="#DejaVuSans-6c" transform="translate(399.011719 0)"/>
       <use xlink:href="#DejaVuSans-75" transform="translate(426.794922 0)"/>
      </g>
     </g>
    </g>
    <g id="xtick_9">
     <g id="line2d_9">
      <g>
       <use xlink:href="#m2192e726b4" x="412.811366" y="310.652201" style="fill: #14181d; stroke: #14181d; stroke-width: 0.8"/>
      </g>
     </g>
     <g id="text_9">
      <!-- Habaş -->
      <g style="fill: #14181d" transform="translate(393.909518 339.675926) rotate(-45) scale(0.08 -0.08)">
       <defs>
        <path id="DejaVuSans-48" d="M 628 4666 
L 1259 4666 
L 1259 2753 
L 3553 2753 
L 3553 4666 
L 4184 4666 
L 4184 0 
L 3553 0 
L 3553 2222 
L 1259 2222 
L 1259 0 
L 628 0 
L 628 4666 
z
" transform="scale(0.015625)"/>
        <path id="DejaVuSans-62" d="M 3116 1747 
Q 3116 2381 2855 2742 
Q 2594 3103 2138 3103 
Q 1681 3103 1420 2742 
Q 1159 2381 1159 1747 
Q 1159 1113 1420 752 
Q 1681 391 2138 391 
Q 2594 391 2855 752 
Q 3116 1113 3116 1747 
z
M 1159 2969 
Q 1341 3281 1617 3432 
Q 1894 3584 2278 3584 
Q 2916 3584 3314 3078 
Q 3713 2572 3713 1747 
Q 3713 922 3314 415 
Q 2916 -91 2278 -91 
Q 1894 -91 1617 61 
Q 1341 213 1159 525 
L 1159 0 
L 581 0 
L 581 4863 
L 1159 4863 
L 1159 2969 
z
" transform="scale(0.015625)"/>
        <path id="DejaVuSans-15f" d="M 2834 3397 
L 2834 2853 
Q 2591 2978 2328 3040 
Q 2066 3103 1784 3103 
Q 1356 3103 1142 2972 
Q 928 2841 928 2578 
Q 928 2378 1081 2264 
Q 1234 2150 1697 2047 
L 1894 2003 
Q 2506 1872 2764 1633 
Q 3022 1394 3022 966 
Q 3022 478 2636 193 
Q 2250 -91 1575 -91 
Q 1294 -91 989 -36 
Q 684 19 347 128 
L 347 722 
Q 666 556 975 473 
Q 1284 391 1588 391 
Q 1994 391 2212 530 
Q 2431 669 2431 922 
Q 2431 1156 2273 1281 
Q 2116 1406 1581 1522 
L 1381 1569 
Q 847 1681 609 1914 
Q 372 2147 372 2553 
Q 372 3047 722 3315 
Q 1072 3584 1716 3584 
Q 2034 3584 2315 3537 
Q 2597 3491 2834 3397 
z
M 1935 0 
Q 2106 -194 2190 -358 
Q 2275 -522 2275 -672 
Q 2275 -950 2087 -1092 
Q 1900 -1234 1531 -1234 
Q 1388 -1234 1252 -1215 
Q 1116 -1197 981 -1159 
L 981 -750 
Q 1088 -803 1203 -826 
Q 1319 -850 1466 -850 
Q 1650 -850 1744 -775 
Q 1838 -700 1838 -556 
Q 1838 -463 1770 -327 
Q 1703 -191 1563 0 
L 1935 0 
z
" transform="scale(0.015625)"/>
       </defs>
       <use xlink:href="#DejaVuSans-48"/>
       <use xlink:href="#DejaVuSans-61" transform="translate(75.195312 0)"/>
       <use xlink:href="#DejaVuSans-62" transform="translate(136.474609 0)"/>
       <use xlink:href="#DejaVuSans-61" transform="translate(199.951172 0)"/>
       <use xlink:href="#DejaVuSans-15f" transform="translate(261.230469 0)"/>
      </g>
     </g>
    </g>
    <g id="xtick_10">
     <g id="line2d_10">
      <g>
       <use xlink:href="#m2192e726b4" x="451.646342" y="310.652201" style="fill: #14181d; stroke: #14181d; stroke-width: 0.8"/>
      </g>
     </g>
     <g id="text_10">
      <!-- Bursa Çim. -->
      <g style="fill: #14181d" transform="translate(419.637386 352.783034) rotate(-45) scale(0.08 -0.08)">
       <defs>
        <path id="DejaVuSans-42" d="M 1259 2228 
L 1259 519 
L 2272 519 
Q 2781 519 3026 730 
Q 3272 941 3272 1375 
Q 3272 1813 3026 2020 
Q 2781 2228 2272 2228 
L 1259 2228 
z
M 1259 4147 
L 1259 2741 
L 2194 2741 
Q 2656 2741 2882 2914 
Q 3109 3088 3109 3444 
Q 3109 3797 2882 3972 
Q 2656 4147 2194 4147 
L 1259 4147 
z
M 628 4666 
L 2241 4666 
Q 2963 4666 3353 4366 
Q 3744 4066 3744 3513 
Q 3744 3084 3544 2831 
Q 3344 2578 2956 2516 
Q 3422 2416 3680 2098 
Q 3938 1781 3938 1306 
Q 3938 681 3513 340 
Q 3088 0 2303 0 
L 628 0 
L 628 4666 
z
" transform="scale(0.015625)"/>
        <path id="DejaVuSans-2e" d="M 684 794 
L 1344 794 
L 1344 0 
L 684 0 
L 684 794 
z
" transform="scale(0.015625)"/>
       </defs>
       <use xlink:href="#DejaVuSans-42"/>
       <use xlink:href="#DejaVuSans-75" transform="translate(68.603516 0)"/>
       <use xlink:href="#DejaVuSans-72" transform="translate(131.982422 0)"/>
       <use xlink:href="#DejaVuSans-73" transform="translate(173.095703 0)"/>
       <use xlink:href="#DejaVuSans-61" transform="translate(225.195312 0)"/>
       <use xlink:href="#DejaVuSans-20" transform="translate(286.474609 0)"/>
       <use xlink:href="#DejaVuSans-c7" transform="translate(318.261719 0)"/>
       <use xlink:href="#DejaVuSans-69" transform="translate(388.085938 0)"/>
       <use xlink:href="#DejaVuSans-6d" transform="translate(415.869141 0)"/>
       <use xlink:href="#DejaVuSans-2e" transform="translate(513.28125 0)"/>
      </g>
     </g>
    </g>
    <g id="xtick_11">
     <g id="line2d_11">
      <g>
       <use xlink:href="#m2192e726b4" x="490.481319" y="310.652201" style="fill: #14181d; stroke: #14181d; stroke-width: 0.8"/>
      </g>
     </g>
     <g id="text_11">
      <!-- Afyon -->
      <g style="fill: #14181d" transform="translate(473.353425 337.901972) rotate(-45) scale(0.08 -0.08)">
       <defs>
        <path id="DejaVuSans-66" d="M 2375 4863 
L 2375 4384 
L 1825 4384 
Q 1516 4384 1395 4259 
Q 1275 4134 1275 3809 
L 1275 3500 
L 2222 3500 
L 2222 3053 
L 1275 3053 
L 1275 0 
L 697 0 
L 697 3053 
L 147 3053 
L 147 3500 
L 697 3500 
L 697 3744 
Q 697 4328 969 4595 
Q 1241 4863 1831 4863 
L 2375 4863 
z
" transform="scale(0.015625)"/>
       </defs>
       <use xlink:href="#DejaVuSans-41"/>
       <use xlink:href="#DejaVuSans-66" transform="translate(64.783203 0)"/>
       <use xlink:href="#DejaVuSans-79" transform="translate(98.238281 0)"/>
       <use xlink:href="#DejaVuSans-6f" transform="translate(157.417969 0)"/>
       <use xlink:href="#DejaVuSans-6e" transform="translate(218.599609 0)"/>
      </g>
     </g>
    </g>
    <g id="xtick_12">
     <g id="line2d_12">
      <g>
       <use xlink:href="#m2192e726b4" x="529.316296" y="310.652201" style="fill: #14181d; stroke: #14181d; stroke-width: 0.8"/>
      </g>
     </g>
     <g id="text_12">
      <!-- Akçansa Büy. -->
      <g style="fill: #14181d" transform="translate(490.815215 359.275158) rotate(-45) scale(0.08 -0.08)">
       <defs>
        <path id="DejaVuSans-fc" d="M 544 1381 
L 544 3500 
L 1119 3500 
L 1119 1403 
Q 1119 906 1312 657 
Q 1506 409 1894 409 
Q 2359 409 2629 706 
Q 2900 1003 2900 1516 
L 2900 3500 
L 3475 3500 
L 3475 0 
L 2900 0 
L 2900 538 
Q 2691 219 2414 64 
Q 2138 -91 1772 -91 
Q 1169 -91 856 284 
Q 544 659 544 1381 
z
M 1991 3584 
L 1991 3584 
z
M 2278 4850 
L 2912 4850 
L 2912 4219 
L 2278 4219 
L 2278 4850 
z
M 1056 4850 
L 1690 4850 
L 1690 4219 
L 1056 4219 
L 1056 4850 
z
" transform="scale(0.015625)"/>
       </defs>
       <use xlink:href="#DejaVuSans-41"/>
       <use xlink:href="#DejaVuSans-6b" transform="translate(68.408203 0)"/>
       <use xlink:href="#DejaVuSans-e7" transform="translate(126.318359 0)"/>
       <use xlink:href="#DejaVuSans-61" transform="translate(181.298828 0)"/>
       <use xlink:href="#DejaVuSans-6e" transform="translate(242.578125 0)"/>
       <use xlink:href="#DejaVuSans-73" transform="translate(305.957031 0)"/>
       <use xlink:href="#DejaVuSans-61" transform="translate(358.056641 0)"/>
       <use xlink:href="#DejaVuSans-20" transform="translate(419.335938 0)"/>
       <use xlink:href="#DejaVuSans-42" transform="translate(451.123047 0)"/>
       <use xlink:href="#DejaVuSans-fc" transform="translate(519.726562 0)"/>
       <use xlink:href="#DejaVuSans-79" transform="translate(583.105469 0)"/>
       <use xlink:href="#DejaVuSans-2e" transform="translate(628.035156 0)"/>
      </g>
     </g>
    </g>
    <g id="xtick_13">
     <g id="line2d_13">
      <g>
       <use xlink:href="#m2192e726b4" x="568.151272" y="310.652201" style="fill: #14181d; stroke: #14181d; stroke-width: 0.8"/>
      </g>
     </g>
     <g id="text_13">
      <!-- Batısöke -->
      <g style="fill: #14181d" transform="translate(542.878392 346.046958) rotate(-45) scale(0.08 -0.08)">
       <defs>
        <path id="DejaVuSans-74" d="M 1172 4494 
L 1172 3500 
L 2356 3500 
L 2356 3053 
L 1172 3053 
L 1172 1153 
Q 1172 725 1289 603 
Q 1406 481 1766 481 
L 2356 481 
L 2356 0 
L 1766 0 
Q 1100 0 847 248 
Q 594 497 594 1153 
L 594 3053 
L 172 3053 
L 172 3500 
L 594 3500 
L 594 4494 
L 1172 4494 
z
" transform="scale(0.015625)"/>
        <path id="DejaVuSans-131" d="M 603 3500 
L 1178 3500 
L 1178 0 
L 603 0 
L 603 3500 
z
M 891 3584 
L 891 3584 
z
" transform="scale(0.015625)"/>
        <path id="DejaVuSans-f6" d="M 1959 3097 
Q 1497 3097 1228 2736 
Q 959 2375 959 1747 
Q 959 1119 1226 758 
Q 1494 397 1959 397 
Q 2419 397 2687 759 
Q 2956 1122 2956 1747 
Q 2956 2369 2687 2733 
Q 2419 3097 1959 3097 
z
M 1959 3584 
Q 2709 3584 3137 3096 
Q 3566 2609 3566 1747 
Q 3566 888 3137 398 
Q 2709 -91 1959 -91 
Q 1206 -91 779 398 
Q 353 888 353 1747 
Q 353 2609 779 3096 
Q 1206 3584 1959 3584 
z
M 2254 4850 
L 2888 4850 
L 2888 4219 
L 2254 4219 
L 2254 4850 
z
M 1032 4850 
L 1666 4850 
L 1666 4219 
L 1032 4219 
L 1032 4850 
z
" transform="scale(0.015625)"/>
       </defs>
       <use xlink:href="#DejaVuSans-42"/>
       <use xlink:href="#DejaVuSans-61" transform="translate(68.603516 0)"/>
       <use xlink:href="#DejaVuSans-74" transform="translate(129.882812 0)"/>
       <use xlink:href="#DejaVuSans-131" transform="translate(169.091797 0)"/>
       <use xlink:href="#DejaVuSans-73" transform="translate(196.875 0)"/>
       <use xlink:href="#DejaVuSans-f6" transform="translate(248.974609 0)"/>
       <use xlink:href="#DejaVuSans-6b" transform="translate(310.15625 0)"/>
       <use xlink:href="#DejaVuSans-65" transform="translate(364.441406 0)"/>
      </g>
     </g>
    </g>
    <g id="xtick_14">
     <g id="line2d_14">
      <g>
       <use xlink:href="#m2192e726b4" x="606.986249" y="310.652201" style="fill: #14181d; stroke: #14181d; stroke-width: 0.8"/>
      </g>
     </g>
     <g id="text_14">
      <!-- Göltaş -->
      <g style="fill: #14181d" transform="translate(587.762667 339.99766) rotate(-45) scale(0.08 -0.08)">
       <defs>
        <path id="DejaVuSans-47" d="M 3809 666 
L 3809 1919 
L 2778 1919 
L 2778 2438 
L 4434 2438 
L 4434 434 
Q 4069 175 3628 42 
Q 3188 -91 2688 -91 
Q 1594 -91 976 548 
Q 359 1188 359 2328 
Q 359 3472 976 4111 
Q 1594 4750 2688 4750 
Q 3144 4750 3555 4637 
Q 3966 4525 4313 4306 
L 4313 3634 
Q 3963 3931 3569 4081 
Q 3175 4231 2741 4231 
Q 1884 4231 1454 3753 
Q 1025 3275 1025 2328 
Q 1025 1384 1454 906 
Q 1884 428 2741 428 
Q 3075 428 3337 486 
Q 3600 544 3809 666 
z
" transform="scale(0.015625)"/>
       </defs>
       <use xlink:href="#DejaVuSans-47"/>
       <use xlink:href="#DejaVuSans-f6" transform="translate(77.490234 0)"/>
       <use xlink:href="#DejaVuSans-6c" transform="translate(138.671875 0)"/>
       <use xlink:href="#DejaVuSans-74" transform="translate(166.455078 0)"/>
       <use xlink:href="#DejaVuSans-61" transform="translate(205.664062 0)"/>
       <use xlink:href="#DejaVuSans-15f" transform="translate(266.943359 0)"/>
      </g>
     </g>
    </g>
    <g id="xtick_15">
     <g id="line2d_15">
      <g>
       <use xlink:href="#m2192e726b4" x="645.821225" y="310.652201" style="fill: #14181d; stroke: #14181d; stroke-width: 0.8"/>
      </g>
     </g>
     <g id="text_15">
      <!-- Akçansa Çan. -->
      <g style="fill: #14181d" transform="translate(606.32666 360.268643) rotate(-45) scale(0.08 -0.08)">
       <use xlink:href="#DejaVuSans-41"/>
       <use xlink:href="#DejaVuSans-6b" transform="translate(68.408203 0)"/>
       <use xlink:href="#DejaVuSans-e7" transform="translate(126.318359 0)"/>
       <use xlink:href="#DejaVuSans-61" transform="translate(181.298828 0)"/>
       <use xlink:href="#DejaVuSans-6e" transform="translate(242.578125 0)"/>
       <use xlink:href="#DejaVuSans-73" transform="translate(305.957031 0)"/>
       <use xlink:href="#DejaVuSans-61" transform="translate(358.056641 0)"/>
       <use xlink:href="#DejaVuSans-20" transform="translate(419.335938 0)"/>
       <use xlink:href="#DejaVuSans-c7" transform="translate(451.123047 0)"/>
       <use xlink:href="#DejaVuSans-61" transform="translate(520.947266 0)"/>
       <use xlink:href="#DejaVuSans-6e" transform="translate(582.226562 0)"/>
       <use xlink:href="#DejaVuSans-2e" transform="translate(645.605469 0)"/>
      </g>
     </g>
    </g>
    <g id="xtick_16">
     <g id="line2d_16">
      <g>
       <use xlink:href="#m2192e726b4" x="684.656202" y="310.652201" style="fill: #14181d; stroke: #14181d; stroke-width: 0.8"/>
      </g>
     </g>
     <g id="text_16">
      <!-- Nuh Hereke -->
      <g style="fill: #14181d" transform="translate(650.314677 355.115603) rotate(-45) scale(0.08 -0.08)">
       <defs>
        <path id="DejaVuSans-4e" d="M 628 4666 
L 1478 4666 
L 3547 763 
L 3547 4666 
L 4159 4666 
L 4159 0 
L 3309 0 
L 1241 3903 
L 1241 0 
L 628 0 
L 628 4666 
z
" transform="scale(0.015625)"/>
       </defs>
       <use xlink:href="#DejaVuSans-4e"/>
       <use xlink:href="#DejaVuSans-75" transform="translate(74.804688 0)"/>
       <use xlink:href="#DejaVuSans-68" transform="translate(138.183594 0)"/>
       <use xlink:href="#DejaVuSans-20" transform="translate(201.5625 0)"/>
       <use xlink:href="#DejaVuSans-48" transform="translate(233.349609 0)"/>
       <use xlink:href="#DejaVuSans-65" transform="translate(308.544922 0)"/>
       <use xlink:href="#DejaVuSans-72" transform="translate(370.068359 0)"/>
       <use xlink:href="#DejaVuSans-65" transform="translate(408.931641 0)"/>
       <use xlink:href="#DejaVuSans-6b" transform="translate(470.455078 0)"/>
       <use xlink:href="#DejaVuSans-65" transform="translate(524.740234 0)"/>
      </g>
     </g>
    </g>
    <g id="xtick_17">
     <g id="line2d_17">
      <g>
       <use xlink:href="#m2192e726b4" x="723.491178" y="310.652201" style="fill: #14181d; stroke: #14181d; stroke-width: 0.8"/>
      </g>
     </g>
     <g id="text_17">
      <!-- Kardemir -->
      <g style="fill: #14181d" transform="translate(696.531848 347.733408) rotate(-45) scale(0.08 -0.08)">
       <defs>
        <path id="DejaVuSans-4b" d="M 628 4666 
L 1259 4666 
L 1259 2694 
L 3353 4666 
L 4166 4666 
L 1850 2491 
L 4331 0 
L 3500 0 
L 1259 2247 
L 1259 0 
L 628 0 
L 628 4666 
z
" transform="scale(0.015625)"/>
       </defs>
       <use xlink:href="#DejaVuSans-4b"/>
       <use xlink:href="#DejaVuSans-61" transform="translate(63.826172 0)"/>
       <use xlink:href="#DejaVuSans-72" transform="translate(125.105469 0)"/>
       <use xlink:href="#DejaVuSans-64" transform="translate(164.46875 0)"/>
       <use xlink:href="#DejaVuSans-65" transform="translate(227.945312 0)"/>
       <use xlink:href="#DejaVuSans-6d" transform="translate(289.46875 0)"/>
       <use xlink:href="#DejaVuSans-69" transform="translate(386.880859 0)"/>
       <use xlink:href="#DejaVuSans-72" transform="translate(414.664062 0)"/>
      </g>
     </g>
    </g>
    <g id="xtick_18">
     <g id="line2d_18">
      <g>
       <use xlink:href="#m2192e726b4" x="762.326155" y="310.652201" style="fill: #14181d; stroke: #14181d; stroke-width: 0.8"/>
      </g>
     </g>
     <g id="text_18">
      <!-- Erdemir -->
      <g style="fill: #14181d" transform="translate(738.869655 344.230577) rotate(-45) scale(0.08 -0.08)">
       <defs>
        <path id="DejaVuSans-45" d="M 628 4666 
L 3578 4666 
L 3578 4134 
L 1259 4134 
L 1259 2753 
L 3481 2753 
L 3481 2222 
L 1259 2222 
L 1259 531 
L 3634 531 
L 3634 0 
L 628 0 
L 628 4666 
z
" transform="scale(0.015625)"/>
       </defs>
       <use xlink:href="#DejaVuSans-45"/>
       <use xlink:href="#DejaVuSans-72" transform="translate(63.183594 0)"/>
       <use xlink:href="#DejaVuSans-64" transform="translate(102.546875 0)"/>
       <use xlink:href="#DejaVuSans-65" transform="translate(166.023438 0)"/>
       <use xlink:href="#DejaVuSans-6d" transform="translate(227.546875 0)"/>
       <use xlink:href="#DejaVuSans-69" transform="translate(324.958984 0)"/>
       <use xlink:href="#DejaVuSans-72" transform="translate(352.742188 0)"/>
      </g>
     </g>
    </g>
    <g id="xtick_19">
     <g id="line2d_19">
      <g>
       <use xlink:href="#m2192e726b4" x="801.161131" y="310.652201" style="fill: #14181d; stroke: #14181d; stroke-width: 0.8"/>
      </g>
     </g>
     <g id="text_19">
      <!-- İsdemir -->
      <g style="fill: #14181d" transform="translate(778.889919 343.04529) rotate(-45) scale(0.08 -0.08)">
       <use xlink:href="#DejaVuSans-130"/>
       <use xlink:href="#DejaVuSans-73" transform="translate(29.492188 0)"/>
       <use xlink:href="#DejaVuSans-64" transform="translate(81.591797 0)"/>
       <use xlink:href="#DejaVuSans-65" transform="translate(145.068359 0)"/>
       <use xlink:href="#DejaVuSans-6d" transform="translate(206.591797 0)"/>
       <use xlink:href="#DejaVuSans-69" transform="translate(304.003906 0)"/>
       <use xlink:href="#DejaVuSans-72" transform="translate(331.787109 0)"/>
      </g>
     </g>
    </g>
   </g>
   <g id="matplotlib.axis_2">
    <g id="ytick_1">
     <g id="line2d_20">
      <path d="M 50.092685 280.599538 
L 853.2 280.599538 
" clip-path="url(#pdf9ec40685)" style="fill: none; stroke: #d8cfbe; stroke-width: 0.5; stroke-linecap: square"/>
     </g>
     <g id="line2d_21">
      <defs>
       <path id="mff2a72adf5" d="M 0 0 
L -3.5 0 
" style="stroke: #14181d; stroke-width: 0.8"/>
      </defs>
      <g>
       <use xlink:href="#mff2a72adf5" x="50.092685" y="280.599538" style="fill: #14181d; stroke: #14181d; stroke-width: 0.8"/>
      </g>
     </g>
     <g id="text_20">
      <!-- $\mathdefault{10^{5}}$ -->
      <g style="fill: #14181d" transform="translate(25.492685 284.398756) scale(0.1 -0.1)">
       <defs>
        <path id="DejaVuSans-31" d="M 794 531 
L 1825 531 
L 1825 4091 
L 703 3866 
L 703 4441 
L 1819 4666 
L 2450 4666 
L 2450 531 
L 3481 531 
L 3481 0 
L 794 0 
L 794 531 
z
" transform="scale(0.015625)"/>
        <path id="DejaVuSans-30" d="M 2034 4250 
Q 1547 4250 1301 3770 
Q 1056 3291 1056 2328 
Q 1056 1369 1301 889 
Q 1547 409 2034 409 
Q 2525 409 2770 889 
Q 3016 1369 3016 2328 
Q 3016 3291 2770 3770 
Q 2525 4250 2034 4250 
z
M 2034 4750 
Q 2819 4750 3233 4129 
Q 3647 3509 3647 2328 
Q 3647 1150 3233 529 
Q 2819 -91 2034 -91 
Q 1250 -91 836 529 
Q 422 1150 422 2328 
Q 422 3509 836 4129 
Q 1250 4750 2034 4750 
z
" transform="scale(0.015625)"/>
        <path id="DejaVuSans-35" d="M 691 4666 
L 3169 4666 
L 3169 4134 
L 1269 4134 
L 1269 2991 
Q 1406 3038 1543 3061 
Q 1681 3084 1819 3084 
Q 2600 3084 3056 2656 
Q 3513 2228 3513 1497 
Q 3513 744 3044 326 
Q 2575 -91 1722 -91 
Q 1428 -91 1123 -41 
Q 819 9 494 109 
L 494 744 
Q 775 591 1075 516 
Q 1375 441 1709 441 
Q 2250 441 2565 725 
Q 2881 1009 2881 1497 
Q 2881 1984 2565 2268 
Q 2250 2553 1709 2553 
Q 1456 2553 1204 2497 
Q 953 2441 691 2322 
L 691 4666 
z
" transform="scale(0.015625)"/>
       </defs>
       <use xlink:href="#DejaVuSans-31" transform="translate(0 0.684375)"/>
       <use xlink:href="#DejaVuSans-30" transform="translate(63.623047 0.684375)"/>
       <use xlink:href="#DejaVuSans-35" transform="translate(128.203125 38.965625) scale(0.7)"/>
      </g>
     </g>
    </g>
    <g id="ytick_2">
     <g id="line2d_22">
      <path d="M 50.092685 170.97346 
L 853.2 170.97346 
" clip-path="url(#pdf9ec40685)" style="fill: none; stroke: #d8cfbe; stroke-width: 0.5; stroke-linecap: square"/>
     </g>
     <g id="line2d_23">
      <g>
       <use xlink:href="#mff2a72adf5" x="50.092685" y="170.97346" style="fill: #14181d; stroke: #14181d; stroke-width: 0.8"/>
      </g>
     </g>
     <g id="text_21">
      <!-- $\mathdefault{10^{6}}$ -->
      <g style="fill: #14181d" transform="translate(25.492685 174.772678) scale(0.1 -0.1)">
       <defs>
        <path id="DejaVuSans-36" d="M 2113 2584 
Q 1688 2584 1439 2293 
Q 1191 2003 1191 1497 
Q 1191 994 1439 701 
Q 1688 409 2113 409 
Q 2538 409 2786 701 
Q 3034 994 3034 1497 
Q 3034 2003 2786 2293 
Q 2538 2584 2113 2584 
z
M 3366 4563 
L 3366 3988 
Q 3128 4100 2886 4159 
Q 2644 4219 2406 4219 
Q 1781 4219 1451 3797 
Q 1122 3375 1075 2522 
Q 1259 2794 1537 2939 
Q 1816 3084 2150 3084 
Q 2853 3084 3261 2657 
Q 3669 2231 3669 1497 
Q 3669 778 3244 343 
Q 2819 -91 2113 -91 
Q 1303 -91 875 529 
Q 447 1150 447 2328 
Q 447 3434 972 4092 
Q 1497 4750 2381 4750 
Q 2619 4750 2861 4703 
Q 3103 4656 3366 4563 
z
" transform="scale(0.015625)"/>
       </defs>
       <use xlink:href="#DejaVuSans-31" transform="translate(0 0.765625)"/>
       <use xlink:href="#DejaVuSans-30" transform="translate(63.623047 0.765625)"/>
       <use xlink:href="#DejaVuSans-36" transform="translate(128.203125 39.046875) scale(0.7)"/>
      </g>
     </g>
    </g>
    <g id="ytick_3">
     <g id="line2d_24">
      <path d="M 50.092685 61.347382 
L 853.2 61.347382 
" clip-path="url(#pdf9ec40685)" style="fill: none; stroke: #d8cfbe; stroke-width: 0.5; stroke-linecap: square"/>
     </g>
     <g id="line2d_25">
      <g>
       <use xlink:href="#mff2a72adf5" x="50.092685" y="61.347382" style="fill: #14181d; stroke: #14181d; stroke-width: 0.8"/>
      </g>
     </g>
     <g id="text_22">
      <!-- $\mathdefault{10^{7}}$ -->
      <g style="fill: #14181d" transform="translate(25.492685 65.1466) scale(0.1 -0.1)">
       <defs>
        <path id="DejaVuSans-37" d="M 525 4666 
L 3525 4666 
L 3525 4397 
L 1831 0 
L 1172 0 
L 2766 4134 
L 525 4134 
L 525 4666 
z
" transform="scale(0.015625)"/>
       </defs>
       <use xlink:href="#DejaVuSans-31" transform="translate(0 0.684375)"/>
       <use xlink:href="#DejaVuSans-30" transform="translate(63.623047 0.684375)"/>
       <use xlink:href="#DejaVuSans-37" transform="translate(128.203125 38.965625) scale(0.7)"/>
      </g>
     </g>
    </g>
    <g id="ytick_4">
     <g id="line2d_26">
      <defs>
       <path id="m54a8c9490c" d="M 0 0 
L -2 0 
" style="stroke: #000000; stroke-width: 0.6"/>
      </defs>
      <g>
       <use xlink:href="#m54a8c9490c" x="50.092685" y="304.919946" style="stroke: #000000; stroke-width: 0.6"/>
      </g>
     </g>
    </g>
    <g id="ytick_5">
     <g id="line2d_27">
      <g>
       <use xlink:href="#m54a8c9490c" x="50.092685" y="297.580832" style="stroke: #000000; stroke-width: 0.6"/>
      </g>
     </g>
    </g>
    <g id="ytick_6">
     <g id="line2d_28">
      <g>
       <use xlink:href="#m54a8c9490c" x="50.092685" y="291.223402" style="stroke: #000000; stroke-width: 0.6"/>
      </g>
     </g>
    </g>
    <g id="ytick_7">
     <g id="line2d_29">
      <g>
       <use xlink:href="#m54a8c9490c" x="50.092685" y="285.615752" style="stroke: #000000; stroke-width: 0.6"/>
      </g>
     </g>
    </g>
    <g id="ytick_8">
     <g id="line2d_30">
      <g>
       <use xlink:href="#m54a8c9490c" x="50.092685" y="247.5988" style="stroke: #000000; stroke-width: 0.6"/>
      </g>
     </g>
    </g>
    <g id="ytick_9">
     <g id="line2d_31">
      <g>
       <use xlink:href="#m54a8c9490c" x="50.092685" y="228.294606" style="stroke: #000000; stroke-width: 0.6"/>
      </g>
     </g>
    </g>
    <g id="ytick_10">
     <g id="line2d_32">
      <g>
       <use xlink:href="#m54a8c9490c" x="50.092685" y="214.598062" style="stroke: #000000; stroke-width: 0.6"/>
      </g>
     </g>
    </g>
    <g id="ytick_11">
     <g id="line2d_33">
      <g>
       <use xlink:href="#m54a8c9490c" x="50.092685" y="203.974197" style="stroke: #000000; stroke-width: 0.6"/>
      </g>
     </g>
    </g>
    <g id="ytick_12">
     <g id="line2d_34">
      <g>
       <use xlink:href="#m54a8c9490c" x="50.092685" y="195.293868" style="stroke: #000000; stroke-width: 0.6"/>
      </g>
     </g>
    </g>
    <g id="ytick_13">
     <g id="line2d_35">
      <g>
       <use xlink:href="#m54a8c9490c" x="50.092685" y="187.954754" style="stroke: #000000; stroke-width: 0.6"/>
      </g>
     </g>
    </g>
    <g id="ytick_14">
     <g id="line2d_36">
      <g>
       <use xlink:href="#m54a8c9490c" x="50.092685" y="181.597324" style="stroke: #000000; stroke-width: 0.6"/>
      </g>
     </g>
    </g>
    <g id="ytick_15">
     <g id="line2d_37">
      <g>
       <use xlink:href="#m54a8c9490c" x="50.092685" y="175.989674" style="stroke: #000000; stroke-width: 0.6"/>
      </g>
     </g>
    </g>
    <g id="ytick_16">
     <g id="line2d_38">
      <g>
       <use xlink:href="#m54a8c9490c" x="50.092685" y="137.972722" style="stroke: #000000; stroke-width: 0.6"/>
      </g>
     </g>
    </g>
    <g id="ytick_17">
     <g id="line2d_39">
      <g>
       <use xlink:href="#m54a8c9490c" x="50.092685" y="118.668528" style="stroke: #000000; stroke-width: 0.6"/>
      </g>
     </g>
    </g>
    <g id="ytick_18">
     <g id="line2d_40">
      <g>
       <use xlink:href="#m54a8c9490c" x="50.092685" y="104.971984" style="stroke: #000000; stroke-width: 0.6"/>
      </g>
     </g>
    </g>
    <g id="ytick_19">
     <g id="line2d_41">
      <g>
       <use xlink:href="#m54a8c9490c" x="50.092685" y="94.348119" style="stroke: #000000; stroke-width: 0.6"/>
      </g>
     </g>
    </g>
    <g id="ytick_20">
     <g id="line2d_42">
      <g>
       <use xlink:href="#m54a8c9490c" x="50.092685" y="85.66779" style="stroke: #000000; stroke-width: 0.6"/>
      </g>
     </g>
    </g>
    <g id="ytick_21">
     <g id="line2d_43">
      <g>
       <use xlink:href="#m54a8c9490c" x="50.092685" y="78.328676" style="stroke: #000000; stroke-width: 0.6"/>
      </g>
     </g>
    </g>
    <g id="ytick_22">
     <g id="line2d_44">
      <g>
       <use xlink:href="#m54a8c9490c" x="50.092685" y="71.971246" style="stroke: #000000; stroke-width: 0.6"/>
      </g>
     </g>
    </g>
    <g id="ytick_23">
     <g id="line2d_45">
      <g>
       <use xlink:href="#m54a8c9490c" x="50.092685" y="66.363596" style="stroke: #000000; stroke-width: 0.6"/>
      </g>
     </g>
    </g>
    <g id="text_23">
     <!-- tCO₂ / year (log scale) -->
     <g transform="translate(19.412997 232.306194) rotate(-90) scale(0.1 -0.1)">
      <defs>
       <path id="DejaVuSans-4f" d="M 2522 4238 
Q 1834 4238 1429 3725 
Q 1025 3213 1025 2328 
Q 1025 1447 1429 934 
Q 1834 422 2522 422 
Q 3209 422 3611 934 
Q 4013 1447 4013 2328 
Q 4013 3213 3611 3725 
Q 3209 4238 2522 4238 
z
M 2522 4750 
Q 3503 4750 4090 4092 
Q 4678 3434 4678 2328 
Q 4678 1225 4090 567 
Q 3503 -91 2522 -91 
Q 1538 -91 948 565 
Q 359 1222 359 2328 
Q 359 3434 948 4092 
Q 1538 4750 2522 4750 
z
" transform="scale(0.015625)"/>
       <path id="DejaVuSans-2082" d="M 838 332 
L 2163 332 
L 2163 -24 
L 294 -24 
L 294 319 
Q 400 416 597 591 
Q 1672 1544 1672 1838 
Q 1672 2044 1509 2170 
Q 1347 2297 1081 2297 
Q 919 2297 728 2242 
Q 538 2188 313 2079 
L 313 2463 
Q 553 2551 761 2594 
Q 969 2638 1147 2638 
Q 1600 2638 1872 2432 
Q 2144 2226 2144 1888 
Q 2144 1454 1109 566 
Q 934 416 838 332 
z
" transform="scale(0.015625)"/>
       <path id="DejaVuSans-2f" d="M 1625 4666 
L 2156 4666 
L 531 -594 
L 0 -594 
L 1625 4666 
z
" transform="scale(0.015625)"/>
       <path id="DejaVuSans-28" d="M 1984 4856 
Q 1566 4138 1362 3434 
Q 1159 2731 1159 2009 
Q 1159 1288 1364 580 
Q 1569 -128 1984 -844 
L 1484 -844 
Q 1016 -109 783 600 
Q 550 1309 550 2009 
Q 550 2706 781 3412 
Q 1013 4119 1484 4856 
L 1984 4856 
z
" transform="scale(0.015625)"/>
       <path id="DejaVuSans-67" d="M 2906 1791 
Q 2906 2416 2648 2759 
Q 2391 3103 1925 3103 
Q 1463 3103 1205 2759 
Q 947 2416 947 1791 
Q 947 1169 1205 825 
Q 1463 481 1925 481 
Q 2391 481 2648 825 
Q 2906 1169 2906 1791 
z
M 3481 434 
Q 3481 -459 3084 -895 
Q 2688 -1331 1869 -1331 
Q 1566 -1331 1297 -1286 
Q 1028 -1241 775 -1147 
L 775 -588 
Q 1028 -725 1275 -790 
Q 1522 -856 1778 -856 
Q 2344 -856 2625 -561 
Q 2906 -266 2906 331 
L 2906 616 
Q 2728 306 2450 153 
Q 2172 0 1784 0 
Q 1141 0 747 490 
Q 353 981 353 1791 
Q 353 2603 747 3093 
Q 1141 3584 1784 3584 
Q 2172 3584 2450 3431 
Q 2728 3278 2906 2969 
L 2906 3500 
L 3481 3500 
L 3481 434 
z
" transform="scale(0.015625)"/>
       <path id="DejaVuSans-63" d="M 3122 3366 
L 3122 2828 
Q 2878 2963 2633 3030 
Q 2388 3097 2138 3097 
Q 1578 3097 1268 2742 
Q 959 2388 959 1747 
Q 959 1106 1268 751 
Q 1578 397 2138 397 
Q 2388 397 2633 464 
Q 2878 531 3122 666 
L 3122 134 
Q 2881 22 2623 -34 
Q 2366 -91 2075 -91 
Q 1284 -91 818 406 
Q 353 903 353 1747 
Q 353 2603 823 3093 
Q 1294 3584 2113 3584 
Q 2378 3584 2631 3529 
Q 2884 3475 3122 3366 
z
" transform="scale(0.015625)"/>
       <path id="DejaVuSans-29" d="M 513 4856 
L 1013 4856 
Q 1481 4119 1714 3412 
Q 1947 2706 1947 2009 
Q 1947 1309 1714 600 
Q 1481 -109 1013 -844 
L 513 -844 
Q 928 -128 1133 580 
Q 1338 1288 1338 2009 
Q 1338 2731 1133 3434 
Q 928 4138 513 4856 
z
" transform="scale(0.015625)"/>
      </defs>
      <use xlink:href="#DejaVuSans-74"/>
      <use xlink:href="#DejaVuSans-43" transform="translate(39.208984 0)"/>
      <use xlink:href="#DejaVuSans-4f" transform="translate(109.033203 0)"/>
      <use xlink:href="#DejaVuSans-2082" transform="translate(187.744141 0)"/>
      <use xlink:href="#DejaVuSans-20" transform="translate(227.832031 0)"/>
      <use xlink:href="#DejaVuSans-2f" transform="translate(259.619141 0)"/>
      <use xlink:href="#DejaVuSans-20" transform="translate(293.310547 0)"/>
      <use xlink:href="#DejaVuSans-79" transform="translate(325.097656 0)"/>
      <use xlink:href="#DejaVuSans-65" transform="translate(384.277344 0)"/>
      <use xlink:href="#DejaVuSans-61" transform="translate(445.800781 0)"/>
      <use xlink:href="#DejaVuSans-72" transform="translate(507.080078 0)"/>
      <use xlink:href="#DejaVuSans-20" transform="translate(548.193359 0)"/>
      <use xlink:href="#DejaVuSans-28" transform="translate(579.980469 0)"/>
      <use xlink:href="#DejaVuSans-6c" transform="translate(618.994141 0)"/>
      <use xlink:href="#DejaVuSans-6f" transform="translate(646.777344 0)"/>
      <use xlink:href="#DejaVuSans-67" transform="translate(707.958984 0)"/>
      <use xlink:href="#DejaVuSans-20" transform="translate(771.435547 0)"/>
      <use xlink:href="#DejaVuSans-73" transform="translate(803.222656 0)"/>
      <use xlink:href="#DejaVuSans-63" transform="translate(855.322266 0)"/>
      <use xlink:href="#DejaVuSans-61" transform="translate(910.302734 0)"/>
      <use xlink:href="#DejaVuSans-6c" transform="translate(971.582031 0)"/>
      <use xlink:href="#DejaVuSans-65" transform="translate(999.365234 0)"/>
      <use xlink:href="#DejaVuSans-29" transform="translate(1060.888672 0)"/>
     </g>
    </g>
   </g>
   <g id="patch_3">
    <path d="M 86.597563 110454.808009 
L 102.131553 110454.808009 
L 102.131553 217.670741 
L 86.597563 217.670741 
z
" clip-path="url(#pdf9ec40685)" style="fill: #b85c3f"/>
   </g>
   <g id="patch_4">
    <path d="M 125.432539 110454.808009 
L 140.96653 110454.808009 
L 140.96653 200.310082 
L 125.432539 200.310082 
z
" clip-path="url(#pdf9ec40685)" style="fill: #b85c3f"/>
   </g>
   <g id="patch_5">
    <path d="M 164.267516 110454.808009 
L 179.801506 110454.808009 
L 179.801506 190.946972 
L 164.267516 190.946972 
z
" clip-path="url(#pdf9ec40685)" style="fill: #b85c3f"/>
   </g>
   <g id="patch_6">
    <path d="M 203.102492 110454.808009 
L 218.636483 110454.808009 
L 218.636483 207.943996 
L 203.102492 207.943996 
z
" clip-path="url(#pdf9ec40685)" style="fill: #b85c3f"/>
   </g>
   <g id="patch_7">
    <path d="M 241.937469 110454.808009 
L 257.47146 110454.808009 
L 257.47146 121.110601 
L 241.937469 121.110601 
z
" clip-path="url(#pdf9ec40685)" style="fill: #b85c3f"/>
   </g>
   <g id="patch_8">
    <path d="M 280.772446 110454.808009 
L 296.306436 110454.808009 
L 296.306436 191.629753 
L 280.772446 191.629753 
z
" clip-path="url(#pdf9ec40685)" style="fill: #b85c3f"/>
   </g>
   <g id="patch_9">
    <path d="M 319.607422 110454.808009 
L 335.141413 110454.808009 
L 335.141413 149.075083 
L 319.607422 149.075083 
z
" clip-path="url(#pdf9ec40685)" style="fill: #b85c3f"/>
   </g>
   <g id="patch_10">
    <path d="M 358.442399 110454.808009 
L 373.976389 110454.808009 
L 373.976389 68.80567 
L 358.442399 68.80567 
z
" clip-path="url(#pdf9ec40685)" style="fill: #b85c3f"/>
   </g>
   <g id="patch_11">
    <path d="M 397.277375 110454.808009 
L 412.811366 110454.808009 
L 412.811366 68.80567 
L 397.277375 68.80567 
z
" clip-path="url(#pdf9ec40685)" style="fill: #b85c3f"/>
   </g>
   <g id="patch_12">
    <path d="M 436.112352 110454.808009 
L 451.646342 110454.808009 
L 451.646342 116.074345 
L 436.112352 116.074345 
z
" clip-path="url(#pdf9ec40685)" style="fill: #b85c3f"/>
   </g>
   <g id="patch_13">
    <path d="M 474.947328 110454.808009 
L 490.481319 110454.808009 
L 490.481319 121.090559 
L 474.947328 121.090559 
z
" clip-path="url(#pdf9ec40685)" style="fill: #b85c3f"/>
   </g>
   <g id="patch_14">
    <path d="M 513.782305 110454.808009 
L 529.316296 110454.808009 
L 529.316296 105.450481 
L 513.782305 105.450481 
z
" clip-path="url(#pdf9ec40685)" style="fill: #b85c3f"/>
   </g>
   <g id="patch_15">
    <path d="M 552.617281 110454.808009 
L 568.151272 110454.808009 
L 568.151272 83.073607 
L 552.617281 83.073607 
z
" clip-path="url(#pdf9ec40685)" style="fill: #b85c3f"/>
   </g>
   <g id="patch_16">
    <path d="M 591.452258 110454.808009 
L 606.986249 110454.808009 
L 606.986249 72.449743 
L 591.452258 72.449743 
z
" clip-path="url(#pdf9ec40685)" style="fill: #b85c3f"/>
   </g>
   <g id="patch_17">
    <path d="M 630.287235 110454.808009 
L 645.821225 110454.808009 
L 645.821225 67.912025 
L 630.287235 67.912025 
z
" clip-path="url(#pdf9ec40685)" style="fill: #b85c3f"/>
   </g>
   <g id="patch_18">
    <path d="M 669.122211 110454.808009 
L 684.656202 110454.808009 
L 684.656202 66.211487 
L 669.122211 66.211487 
z
" clip-path="url(#pdf9ec40685)" style="fill: #b85c3f"/>
   </g>
   <g id="patch_19">
    <path d="M 707.957188 110454.808009 
L 723.491178 110454.808009 
L 723.491178 80.77075 
L 707.957188 80.77075 
z
" clip-path="url(#pdf9ec40685)" style="fill: #b85c3f"/>
   </g>
   <g id="patch_20">
    <path d="M 746.792164 110454.808009 
L 762.326155 110454.808009 
L 762.326155 74.41332 
L 746.792164 74.41332 
z
" clip-path="url(#pdf9ec40685)" style="fill: #b85c3f"/>
   </g>
   <g id="patch_21">
    <path d="M 785.627141 110454.808009 
L 801.161131 110454.808009 
L 801.161131 61.015273 
L 785.627141 61.015273 
z
" clip-path="url(#pdf9ec40685)" style="fill: #b85c3f"/>
   </g>
   <g id="patch_22">
    <path d="M 102.131553 110454.808009 
L 117.665544 110454.808009 
L 117.665544 290.891339 
L 102.131553 290.891339 
z
" clip-path="url(#pdf9ec40685)" style="fill: #2d5a4c"/>
   </g>
   <g id="patch_23">
    <path d="M 140.96653 110454.808009 
L 156.500521 110454.808009 
L 156.500521 284.354368 
L 140.96653 284.354368 
z
" clip-path="url(#pdf9ec40685)" style="fill: #2d5a4c"/>
   </g>
   <g id="patch_24">
    <path d="M 179.801506 110454.808009 
L 195.335497 110454.808009 
L 195.335497 217.458702 
L 179.801506 217.458702 
z
" clip-path="url(#pdf9ec40685)" style="fill: #2d5a4c"/>
   </g>
   <g id="patch_25">
    <path d="M 218.636483 110454.808009 
L 234.170474 110454.808009 
L 234.170474 245.888546 
L 218.636483 245.888546 
z
" clip-path="url(#pdf9ec40685)" style="fill: #2d5a4c"/>
   </g>
   <g id="patch_26">
    <path d="M 257.47146 110454.808009 
L 273.00545 110454.808009 
L 273.00545 231.454465 
L 257.47146 231.454465 
z
" clip-path="url(#pdf9ec40685)" style="fill: #2d5a4c"/>
   </g>
   <g id="patch_27">
    <path d="M 296.306436 110454.808009 
L 311.840427 110454.808009 
L 311.840427 231.544637 
L 296.306436 231.544637 
z
" clip-path="url(#pdf9ec40685)" style="fill: #2d5a4c"/>
   </g>
   <g id="patch_28">
    <path d="M 335.141413 110454.808009 
L 350.675403 110454.808009 
L 350.675403 195.782467 
L 335.141413 195.782467 
z
" clip-path="url(#pdf9ec40685)" style="fill: #2d5a4c"/>
   </g>
   <g id="patch_29">
    <path d="M 373.976389 110454.808009 
L 389.51038 110454.808009 
L 389.51038 200.350726 
L 373.976389 200.350726 
z
" clip-path="url(#pdf9ec40685)" style="fill: #2d5a4c"/>
   </g>
   <g id="patch_30">
    <path d="M 412.811366 110454.808009 
L 428.345356 110454.808009 
L 428.345356 179.130814 
L 412.811366 179.130814 
z
" clip-path="url(#pdf9ec40685)" style="fill: #2d5a4c"/>
   </g>
   <g id="patch_31">
    <path d="M 451.646342 110454.808009 
L 467.180333 110454.808009 
L 467.180333 187.457661 
L 451.646342 187.457661 
z
" clip-path="url(#pdf9ec40685)" style="fill: #2d5a4c"/>
   </g>
   <g id="patch_32">
    <path d="M 490.481319 110454.808009 
L 506.01531 110454.808009 
L 506.01531 187.466318 
L 490.481319 187.466318 
z
" clip-path="url(#pdf9ec40685)" style="fill: #2d5a4c"/>
   </g>
   <g id="patch_33">
    <path d="M 529.316296 110454.808009 
L 544.850286 110454.808009 
L 544.850286 143.219486 
L 529.316296 143.219486 
z
" clip-path="url(#pdf9ec40685)" style="fill: #2d5a4c"/>
   </g>
   <g id="patch_34">
    <path d="M 568.151272 110454.808009 
L 583.685263 110454.808009 
L 583.685263 154.456923 
L 568.151272 154.456923 
z
" clip-path="url(#pdf9ec40685)" style="fill: #2d5a4c"/>
   </g>
   <g id="patch_35">
    <path d="M 606.986249 110454.808009 
L 622.520239 110454.808009 
L 622.520239 138.634134 
L 606.986249 138.634134 
z
" clip-path="url(#pdf9ec40685)" style="fill: #2d5a4c"/>
   </g>
   <g id="patch_36">
    <path d="M 645.821225 110454.808009 
L 661.355216 110454.808009 
L 661.355216 106.595247 
L 645.821225 106.595247 
z
" clip-path="url(#pdf9ec40685)" style="fill: #2d5a4c"/>
   </g>
   <g id="patch_37">
    <path d="M 684.656202 110454.808009 
L 700.190192 110454.808009 
L 700.190192 127.985817 
L 684.656202 127.985817 
z
" clip-path="url(#pdf9ec40685)" style="fill: #2d5a4c"/>
   </g>
   <g id="patch_38">
    <path d="M 723.491178 110454.808009 
L 739.025169 110454.808009 
L 739.025169 94.756105 
L 723.491178 94.756105 
z
" clip-path="url(#pdf9ec40685)" style="fill: #2d5a4c"/>
   </g>
   <g id="patch_39">
    <path d="M 762.326155 110454.808009 
L 777.860145 110454.808009 
L 777.860145 76.403167 
L 762.326155 76.403167 
z
" clip-path="url(#pdf9ec40685)" style="fill: #2d5a4c"/>
   </g>
   <g id="patch_40">
    <path d="M 801.161131 110454.808009 
L 816.695122 110454.808009 
L 816.695122 56.090009 
L 801.161131 56.090009 
z
" clip-path="url(#pdf9ec40685)" style="fill: #2d5a4c"/>
   </g>
   <g id="patch_41">
    <path d="M 50.092685 310.652201 
L 50.092685 43.968 
" style="fill: none; stroke: #d8cfbe; stroke-width: 0.8; stroke-linejoin: miter; stroke-linecap: square"/>
   </g>
   <g id="patch_42">
    <path d="M 50.092685 310.652201 
L 853.2 310.652201 
" style="fill: none; stroke: #d8cfbe; stroke-width: 0.8; stroke-linejoin: miter; stroke-linecap: square"/>
   </g>
   <g id="PathCollection_1">
    <defs>
     <path id="mbee33867b4" d="M 10.246951 0 
L -10.246951 -0 
" style="stroke: #14181d; stroke-width: 2.4"/>
    </defs>
    <g clip-path="url(#pdf9ec40685)">
     <use xlink:href="#mbee33867b4" x="102.131553" y="298.530192" style="fill: #14181d; stroke: #14181d; stroke-width: 2.4"/>
     <use xlink:href="#mbee33867b4" x="140.96653" y="276.715514" style="fill: #14181d; stroke: #14181d; stroke-width: 2.4"/>
     <use xlink:href="#mbee33867b4" x="179.801506" y="246.693353" style="fill: #14181d; stroke: #14181d; stroke-width: 2.4"/>
     <use xlink:href="#mbee33867b4" x="218.636483" y="235.998537" style="fill: #14181d; stroke: #14181d; stroke-width: 2.4"/>
     <use xlink:href="#mbee33867b4" x="257.47146" y="233.113208" style="fill: #14181d; stroke: #14181d; stroke-width: 2.4"/>
     <use xlink:href="#mbee33867b4" x="296.306436" y="216.647101" style="fill: #14181d; stroke: #14181d; stroke-width: 2.4"/>
     <use xlink:href="#mbee33867b4" x="335.141413" y="204.069513" style="fill: #14181d; stroke: #14181d; stroke-width: 2.4"/>
     <use xlink:href="#mbee33867b4" x="373.976389" y="198.027588" style="fill: #14181d; stroke: #14181d; stroke-width: 2.4"/>
     <use xlink:href="#mbee33867b4" x="412.811366" y="179.825227" style="fill: #14181d; stroke: #14181d; stroke-width: 2.4"/>
     <use xlink:href="#mbee33867b4" x="451.646342" y="165.51225" style="fill: #14181d; stroke: #14181d; stroke-width: 2.4"/>
     <use xlink:href="#mbee33867b4" x="490.481319" y="162.29313" style="fill: #14181d; stroke: #14181d; stroke-width: 2.4"/>
     <use xlink:href="#mbee33867b4" x="529.316296" y="151.226966" style="fill: #14181d; stroke: #14181d; stroke-width: 2.4"/>
     <use xlink:href="#mbee33867b4" x="568.151272" y="149.257999" style="fill: #14181d; stroke: #14181d; stroke-width: 2.4"/>
     <use xlink:href="#mbee33867b4" x="606.986249" y="146.58439" style="fill: #14181d; stroke: #14181d; stroke-width: 2.4"/>
     <use xlink:href="#mbee33867b4" x="645.821225" y="111.794172" style="fill: #14181d; stroke: #14181d; stroke-width: 2.4"/>
     <use xlink:href="#mbee33867b4" x="684.656202" y="110.187612" style="fill: #14181d; stroke: #14181d; stroke-width: 2.4"/>
     <use xlink:href="#mbee33867b4" x="723.491178" y="88.524063" style="fill: #14181d; stroke: #14181d; stroke-width: 2.4"/>
     <use xlink:href="#mbee33867b4" x="762.326155" y="80.647539" style="fill: #14181d; stroke: #14181d; stroke-width: 2.4"/>
     <use xlink:href="#mbee33867b4" x="801.161131" y="58.289446" style="fill: #14181d; stroke: #14181d; stroke-width: 2.4"/>
    </g>
   </g>
   <g id="text_24">
    <!-- Per-plant emissions: EU CBAM default vs cf-corrected formula -->
    <g style="fill: #14181d" transform="translate(275.134819 19.090516) scale(0.115 -0.115)">
     <defs>
      <path id="DejaVuSans-50" d="M 1259 4147 
L 1259 2394 
L 2053 2394 
Q 2494 2394 2734 2622 
Q 2975 2850 2975 3272 
Q 2975 3691 2734 3919 
Q 2494 4147 2053 4147 
L 1259 4147 
z
M 628 4666 
L 2053 4666 
Q 2838 4666 3239 4311 
Q 3641 3956 3641 3272 
Q 3641 2581 3239 2228 
Q 2838 1875 2053 1875 
L 1259 1875 
L 1259 0 
L 628 0 
L 628 4666 
z
" transform="scale(0.015625)"/>
      <path id="DejaVuSans-2d" d="M 313 2009 
L 1997 2009 
L 1997 1497 
L 313 1497 
L 313 2009 
z
" transform="scale(0.015625)"/>
      <path id="DejaVuSans-70" d="M 1159 525 
L 1159 -1331 
L 581 -1331 
L 581 3500 
L 1159 3500 
L 1159 2969 
Q 1341 3281 1617 3432 
Q 1894 3584 2278 3584 
Q 2916 3584 3314 3078 
Q 3713 2572 3713 1747 
Q 3713 922 3314 415 
Q 2916 -91 2278 -91 
Q 1894 -91 1617 61 
Q 1341 213 1159 525 
z
M 3116 1747 
Q 3116 2381 2855 2742 
Q 2594 3103 2138 3103 
Q 1681 3103 1420 2742 
Q 1159 2381 1159 1747 
Q 1159 1113 1420 752 
Q 1681 391 2138 391 
Q 2594 391 2855 752 
Q 3116 1113 3116 1747 
z
" transform="scale(0.015625)"/>
      <path id="DejaVuSans-3a" d="M 750 794 
L 1409 794 
L 1409 0 
L 750 0 
L 750 794 
z
M 750 3309 
L 1409 3309 
L 1409 2516 
L 750 2516 
L 750 3309 
z
" transform="scale(0.015625)"/>
      <path id="DejaVuSans-55" d="M 556 4666 
L 1191 4666 
L 1191 1831 
Q 1191 1081 1462 751 
Q 1734 422 2344 422 
Q 2950 422 3222 751 
Q 3494 1081 3494 1831 
L 3494 4666 
L 4128 4666 
L 4128 1753 
Q 4128 841 3676 375 
Q 3225 -91 2344 -91 
Q 1459 -91 1007 375 
Q 556 841 556 1753 
L 556 4666 
z
" transform="scale(0.015625)"/>
      <path id="DejaVuSans-76" d="M 191 3500 
L 800 3500 
L 1894 563 
L 2988 3500 
L 3597 3500 
L 2284 0 
L 1503 0 
L 191 3500 
z
" transform="scale(0.015625)"/>
     </defs>
     <use xlink:href="#DejaVuSans-50"/>
     <use xlink:href="#DejaVuSans-65" transform="translate(56.677734 0)"/>
     <use xlink:href="#DejaVuSans-72" transform="translate(118.201172 0)"/>
     <use xlink:href="#DejaVuSans-2d" transform="translate(152.939453 0)"/>
     <use xlink:href="#DejaVuSans-70" transform="translate(189.023438 0)"/>
     <use xlink:href="#DejaVuSans-6c" transform="translate(252.5 0)"/>
     <use xlink:href="#DejaVuSans-61" transform="translate(280.283203 0)"/>
     <use xlink:href="#DejaVuSans-6e" transform="translate(341.5625 0)"/>
     <use xlink:href="#DejaVuSans-74" transform="translate(404.941406 0)"/>
     <use xlink:href="#DejaVuSans-20" transform="translate(444.150391 0)"/>
     <use xlink:href="#DejaVuSans-65" transform="translate(475.9375 0)"/>
     <use xlink:href="#DejaVuSans-6d" transform="translate(537.460938 0)"/>
     <use xlink:href="#DejaVuSans-69" transform="translate(634.873047 0)"/>
     <use xlink:href="#DejaVuSans-73" transform="translate(662.65625 0)"/>
     <use xlink:href="#DejaVuSans-73" transform="translate(714.755859 0)"/>
     <use xlink:href="#DejaVuSans-69" transform="translate(766.855469 0)"/>
     <use xlink:href="#DejaVuSans-6f" transform="translate(794.638672 0)"/>
     <use xlink:href="#DejaVuSans-6e" transform="translate(855.820312 0)"/>
     <use xlink:href="#DejaVuSans-73" transform="translate(919.199219 0)"/>
     <use xlink:href="#DejaVuSans-3a" transform="translate(971.298828 0)"/>
     <use xlink:href="#DejaVuSans-20" transform="translate(1004.990234 0)"/>
     <use xlink:href="#DejaVuSans-45" transform="translate(1036.777344 0)"/>
     <use xlink:href="#DejaVuSans-55" transform="translate(1099.960938 0)"/>
     <use xlink:href="#DejaVuSans-20" transform="translate(1173.154297 0)"/>
     <use xlink:href="#DejaVuSans-43" transform="translate(1204.941406 0)"/>
     <use xlink:href="#DejaVuSans-42" transform="translate(1274.765625 0)"/>
     <use xlink:href="#DejaVuSans-41" transform="translate(1343.369141 0)"/>
     <use xlink:href="#DejaVuSans-4d" transform="translate(1411.777344 0)"/>
     <use xlink:href="#DejaVuSans-20" transform="translate(1498.056641 0)"/>
     <use xlink:href="#DejaVuSans-64" transform="translate(1529.84375 0)"/>
     <use xlink:href="#DejaVuSans-65" transform="translate(1593.320312 0)"/>
     <use xlink:href="#DejaVuSans-66" transform="translate(1654.84375 0)"/>
     <use xlink:href="#DejaVuSans-61" transform="translate(1690.048828 0)"/>
     <use xlink:href="#DejaVuSans-75" transform="translate(1751.328125 0)"/>
     <use xlink:href="#DejaVuSans-6c" transform="translate(1814.707031 0)"/>
     <use xlink:href="#DejaVuSans-74" transform="translate(1842.490234 0)"/>
     <use xlink:href="#DejaVuSans-20" transform="translate(1881.699219 0)"/>
     <use xlink:href="#DejaVuSans-76" transform="translate(1913.486328 0)"/>
     <use xlink:href="#DejaVuSans-73" transform="translate(1972.666016 0)"/>
     <use xlink:href="#DejaVuSans-20" transform="translate(2024.765625 0)"/>
     <use xlink:href="#DejaVuSans-63" transform="translate(2056.552734 0)"/>
     <use xlink:href="#DejaVuSans-66" transform="translate(2111.533203 0)"/>
     <use xlink:href="#DejaVuSans-2d" transform="translate(2141.238281 0)"/>
     <use xlink:href="#DejaVuSans-63" transform="translate(2177.322266 0)"/>
     <use xlink:href="#DejaVuSans-6f" transform="translate(2232.302734 0)"/>
     <use xlink:href="#DejaVuSans-72" transform="translate(2293.484375 0)"/>
     <use xlink:href="#DejaVuSans-72" transform="translate(2332.847656 0)"/>
     <use xlink:href="#DejaVuSans-65" transform="translate(2371.710938 0)"/>
     <use xlink:href="#DejaVuSans-63" transform="translate(2433.234375 0)"/>
     <use xlink:href="#DejaVuSans-74" transform="translate(2488.214844 0)"/>
     <use xlink:href="#DejaVuSans-65" transform="translate(2527.423828 0)"/>
     <use xlink:href="#DejaVuSans-64" transform="translate(2588.947266 0)"/>
     <use xlink:href="#DejaVuSans-20" transform="translate(2652.423828 0)"/>
     <use xlink:href="#DejaVuSans-66" transform="translate(2684.210938 0)"/>
     <use xlink:href="#DejaVuSans-6f" transform="translate(2719.416016 0)"/>
     <use xlink:href="#DejaVuSans-72" transform="translate(2780.597656 0)"/>
     <use xlink:href="#DejaVuSans-6d" transform="translate(2819.960938 0)"/>
     <use xlink:href="#DejaVuSans-75" transform="translate(2917.373047 0)"/>
     <use xlink:href="#DejaVuSans-6c" transform="translate(2980.751953 0)"/>
     <use xlink:href="#DejaVuSans-61" transform="translate(3008.535156 0)"/>
    </g>
    <!-- leave-one-plant-out, +82.3% log-MAE reduction over n=19 validatable plants -->
    <g style="fill: #14181d" transform="translate(228.378335 31.968) scale(0.115 -0.115)">
     <defs>
      <path id="DejaVuSans-2c" d="M 750 794 
L 1409 794 
L 1409 256 
L 897 -744 
L 494 -744 
L 750 256 
L 750 794 
z
" transform="scale(0.015625)"/>
      <path id="DejaVuSans-2b" d="M 2944 4013 
L 2944 2272 
L 4684 2272 
L 4684 1741 
L 2944 1741 
L 2944 0 
L 2419 0 
L 2419 1741 
L 678 1741 
L 678 2272 
L 2419 2272 
L 2419 4013 
L 2944 4013 
z
" transform="scale(0.015625)"/>
      <path id="DejaVuSans-38" d="M 2034 2216 
Q 1584 2216 1326 1975 
Q 1069 1734 1069 1313 
Q 1069 891 1326 650 
Q 1584 409 2034 409 
Q 2484 409 2743 651 
Q 3003 894 3003 1313 
Q 3003 1734 2745 1975 
Q 2488 2216 2034 2216 
z
M 1403 2484 
Q 997 2584 770 2862 
Q 544 3141 544 3541 
Q 544 4100 942 4425 
Q 1341 4750 2034 4750 
Q 2731 4750 3128 4425 
Q 3525 4100 3525 3541 
Q 3525 3141 3298 2862 
Q 3072 2584 2669 2484 
Q 3125 2378 3379 2068 
Q 3634 1759 3634 1313 
Q 3634 634 3220 271 
Q 2806 -91 2034 -91 
Q 1263 -91 848 271 
Q 434 634 434 1313 
Q 434 1759 690 2068 
Q 947 2378 1403 2484 
z
M 1172 3481 
Q 1172 3119 1398 2916 
Q 1625 2713 2034 2713 
Q 2441 2713 2670 2916 
Q 2900 3119 2900 3481 
Q 2900 3844 2670 4047 
Q 2441 4250 2034 4250 
Q 1625 4250 1398 4047 
Q 1172 3844 1172 3481 
z
" transform="scale(0.015625)"/>
      <path id="DejaVuSans-32" d="M 1228 531 
L 3431 531 
L 3431 0 
L 469 0 
L 469 531 
Q 828 903 1448 1529 
Q 2069 2156 2228 2338 
Q 2531 2678 2651 2914 
Q 2772 3150 2772 3378 
Q 2772 3750 2511 3984 
Q 2250 4219 1831 4219 
Q 1534 4219 1204 4116 
Q 875 4013 500 3803 
L 500 4441 
Q 881 4594 1212 4672 
Q 1544 4750 1819 4750 
Q 2544 4750 2975 4387 
Q 3406 4025 3406 3419 
Q 3406 3131 3298 2873 
Q 3191 2616 2906 2266 
Q 2828 2175 2409 1742 
Q 1991 1309 1228 531 
z
" transform="scale(0.015625)"/>
      <path id="DejaVuSans-33" d="M 2597 2516 
Q 3050 2419 3304 2112 
Q 3559 1806 3559 1356 
Q 3559 666 3084 287 
Q 2609 -91 1734 -91 
Q 1441 -91 1130 -33 
Q 819 25 488 141 
L 488 750 
Q 750 597 1062 519 
Q 1375 441 1716 441 
Q 2309 441 2620 675 
Q 2931 909 2931 1356 
Q 2931 1769 2642 2001 
Q 2353 2234 1838 2234 
L 1294 2234 
L 1294 2753 
L 1863 2753 
Q 2328 2753 2575 2939 
Q 2822 3125 2822 3475 
Q 2822 3834 2567 4026 
Q 2313 4219 1838 4219 
Q 1578 4219 1281 4162 
Q 984 4106 628 3988 
L 628 4550 
Q 988 4650 1302 4700 
Q 1616 4750 1894 4750 
Q 2613 4750 3031 4423 
Q 3450 4097 3450 3541 
Q 3450 3153 3228 2886 
Q 3006 2619 2597 2516 
z
" transform="scale(0.015625)"/>
      <path id="DejaVuSans-25" d="M 4653 2053 
Q 4381 2053 4226 1822 
Q 4072 1591 4072 1178 
Q 4072 772 4226 539 
Q 4381 306 4653 306 
Q 4919 306 5073 539 
Q 5228 772 5228 1178 
Q 5228 1588 5073 1820 
Q 4919 2053 4653 2053 
z
M 4653 2450 
Q 5147 2450 5437 2106 
Q 5728 1763 5728 1178 
Q 5728 594 5436 251 
Q 5144 -91 4653 -91 
Q 4153 -91 3862 251 
Q 3572 594 3572 1178 
Q 3572 1766 3864 2108 
Q 4156 2450 4653 2450 
z
M 1428 4353 
Q 1159 4353 1004 4120 
Q 850 3888 850 3481 
Q 850 3069 1003 2837 
Q 1156 2606 1428 2606 
Q 1700 2606 1854 2837 
Q 2009 3069 2009 3481 
Q 2009 3884 1853 4118 
Q 1697 4353 1428 4353 
z
M 4250 4750 
L 4750 4750 
L 1831 -91 
L 1331 -91 
L 4250 4750 
z
M 1428 4750 
Q 1922 4750 2215 4408 
Q 2509 4066 2509 3481 
Q 2509 2891 2217 2550 
Q 1925 2209 1428 2209 
Q 931 2209 642 2551 
Q 353 2894 353 3481 
Q 353 4063 643 4406 
Q 934 4750 1428 4750 
z
" transform="scale(0.015625)"/>
      <path id="DejaVuSans-3d" d="M 678 2906 
L 4684 2906 
L 4684 2381 
L 678 2381 
L 678 2906 
z
M 678 1631 
L 4684 1631 
L 4684 1100 
L 678 1100 
L 678 1631 
z
" transform="scale(0.015625)"/>
      <path id="DejaVuSans-39" d="M 703 97 
L 703 672 
Q 941 559 1184 500 
Q 1428 441 1663 441 
Q 2288 441 2617 861 
Q 2947 1281 2994 2138 
Q 2813 1869 2534 1725 
Q 2256 1581 1919 1581 
Q 1219 1581 811 2004 
Q 403 2428 403 3163 
Q 403 3881 828 4315 
Q 1253 4750 1959 4750 
Q 2769 4750 3195 4129 
Q 3622 3509 3622 2328 
Q 3622 1225 3098 567 
Q 2575 -91 1691 -91 
Q 1453 -91 1209 -44 
Q 966 3 703 97 
z
M 1959 2075 
Q 2384 2075 2632 2365 
Q 2881 2656 2881 3163 
Q 2881 3666 2632 3958 
Q 2384 4250 1959 4250 
Q 1534 4250 1286 3958 
Q 1038 3666 1038 3163 
Q 1038 2656 1286 2365 
Q 1534 2075 1959 2075 
z
" transform="scale(0.015625)"/>
     </defs>
     <use xlink:href="#DejaVuSans-6c"/>
     <use xlink:href="#DejaVuSans-65" transform="translate(27.783203 0)"/>
     <use xlink:href="#DejaVuSans-61" transform="translate(89.306641 0)"/>
     <use xlink:href="#DejaVuSans-76" transform="translate(150.585938 0)"/>
     <use xlink:href="#DejaVuSans-65" transform="translate(209.765625 0)"/>
     <use xlink:href="#DejaVuSans-2d" transform="translate(271.289062 0)"/>
     <use xlink:href="#DejaVuSans-6f" transform="translate(309.248047 0)"/>
     <use xlink:href="#DejaVuSans-6e" transform="translate(370.429688 0)"/>
     <use xlink:href="#DejaVuSans-65" transform="translate(433.808594 0)"/>
     <use xlink:href="#DejaVuSans-2d" transform="translate(495.332031 0)"/>
     <use xlink:href="#DejaVuSans-70" transform="translate(531.416016 0)"/>
     <use xlink:href="#DejaVuSans-6c" transform="translate(594.892578 0)"/>
     <use xlink:href="#DejaVuSans-61" transform="translate(622.675781 0)"/>
     <use xlink:href="#DejaVuSans-6e" transform="translate(683.955078 0)"/>
     <use xlink:href="#DejaVuSans-74" transform="translate(747.333984 0)"/>
     <use xlink:href="#DejaVuSans-2d" transform="translate(786.542969 0)"/>
     <use xlink:href="#DejaVuSans-6f" transform="translate(824.501953 0)"/>
     <use xlink:href="#DejaVuSans-75" transform="translate(885.683594 0)"/>
     <use xlink:href="#DejaVuSans-74" transform="translate(949.0625 0)"/>
     <use xlink:href="#DejaVuSans-2c" transform="translate(988.271484 0)"/>
     <use xlink:href="#DejaVuSans-20" transform="translate(1020.058594 0)"/>
     <use xlink:href="#DejaVuSans-2b" transform="translate(1051.845703 0)"/>
     <use xlink:href="#DejaVuSans-38" transform="translate(1135.634766 0)"/>
     <use xlink:href="#DejaVuSans-32" transform="translate(1199.257812 0)"/>
     <use xlink:href="#DejaVuSans-2e" transform="translate(1262.880859 0)"/>
     <use xlink:href="#DejaVuSans-33" transform="translate(1294.667969 0)"/>
     <use xlink:href="#DejaVuSans-25" transform="translate(1358.291016 0)"/>
     <use xlink:href="#DejaVuSans-20" transform="translate(1453.310547 0)"/>
     <use xlink:href="#DejaVuSans-6c" transform="translate(1485.097656 0)"/>
     <use xlink:href="#DejaVuSans-6f" transform="translate(1512.880859 0)"/>
     <use xlink:href="#DejaVuSans-67" transform="translate(1574.0625 0)"/>
     <use xlink:href="#DejaVuSans-2d" transform="translate(1637.539062 0)"/>
     <use xlink:href="#DejaVuSans-4d" transform="translate(1673.623047 0)"/>
     <use xlink:href="#DejaVuSans-41" transform="translate(1759.902344 0)"/>
     <use xlink:href="#DejaVuSans-45" transform="translate(1828.310547 0)"/>
     <use xlink:href="#DejaVuSans-20" transform="translate(1891.494141 0)"/>
     <use xlink:href="#DejaVuSans-72" transform="translate(1923.28125 0)"/>
     <use xlink:href="#DejaVuSans-65" transform="translate(1962.144531 0)"/>
     <use xlink:href="#DejaVuSans-64" transform="translate(2023.667969 0)"/>
     <use xlink:href="#DejaVuSans-75" transform="translate(2087.144531 0)"/>
     <use xlink:href="#DejaVuSans-63" transform="translate(2150.523438 0)"/>
     <use xlink:href="#DejaVuSans-74" transform="translate(2205.503906 0)"/>
     <use xlink:href="#DejaVuSans-69" transform="translate(2244.712891 0)"/>
     <use xlink:href="#DejaVuSans-6f" transform="translate(2272.496094 0)"/>
     <use xlink:href="#DejaVuSans-6e" transform="translate(2333.677734 0)"/>
     <use xlink:href="#DejaVuSans-20" transform="translate(2397.056641 0)"/>
     <use xlink:href="#DejaVuSans-6f" transform="translate(2428.84375 0)"/>
     <use xlink:href="#DejaVuSans-76" transform="translate(2490.025391 0)"/>
     <use xlink:href="#DejaVuSans-65" transform="translate(2549.205078 0)"/>
     <use xlink:href="#DejaVuSans-72" transform="translate(2610.728516 0)"/>
     <use xlink:href="#DejaVuSans-20" transform="translate(2651.841797 0)"/>
     <use xlink:href="#DejaVuSans-6e" transform="translate(2683.628906 0)"/>
     <use xlink:href="#DejaVuSans-3d" transform="translate(2747.007812 0)"/>
     <use xlink:href="#DejaVuSans-31" transform="translate(2830.796875 0)"/>
     <use xlink:href="#DejaVuSans-39" transform="translate(2894.419922 0)"/>
     <use xlink:href="#DejaVuSans-20" transform="translate(2958.042969 0)"/>
     <use xlink:href="#DejaVuSans-76" transform="translate(2989.830078 0)"/>
     <use xlink:href="#DejaVuSans-61" transform="translate(3049.009766 0)"/>
     <use xlink:href="#DejaVuSans-6c" transform="translate(3110.289062 0)"/>
     <use xlink:href="#DejaVuSans-69" transform="translate(3138.072266 0)"/>
     <use xlink:href="#DejaVuSans-64" transform="translate(3165.855469 0)"/>
     <use xlink:href="#DejaVuSans-61" transform="translate(3229.332031 0)"/>
     <use xlink:href="#DejaVuSans-74" transform="translate(3290.611328 0)"/>
     <use xlink:href="#DejaVuSans-61" transform="translate(3329.820312 0)"/>
     <use xlink:href="#DejaVuSans-62" transform="translate(3391.099609 0)"/>
     <use xlink:href="#DejaVuSans-6c" transform="translate(3454.576172 0)"/>
     <use xlink:href="#DejaVuSans-65" transform="translate(3482.359375 0)"/>
     <use xlink:href="#DejaVuSans-20" transform="translate(3543.882812 0)"/>
     <use xlink:href="#DejaVuSans-70" transform="translate(3575.669922 0)"/>
     <use xlink:href="#DejaVuSans-6c" transform="translate(3639.146484 0)"/>
     <use xlink:href="#DejaVuSans-61" transform="translate(3666.929688 0)"/>
     <use xlink:href="#DejaVuSans-6e" transform="translate(3728.208984 0)"/>
     <use xlink:href="#DejaVuSans-74" transform="translate(3791.587891 0)"/>
     <use xlink:href="#DejaVuSans-73" transform="translate(3830.796875 0)"/>
    </g>
   </g>
   <g id="legend_1">
    <g id="patch_43">
     <path d="M 58.192685 58.906594 
L 76.192685 58.906594 
L 76.192685 52.606594 
L 58.192685 52.606594 
z
" style="fill: #b85c3f; stroke: #b85c3f; stroke-linejoin: miter"/>
    </g>
    <g id="text_25">
     <!-- EU CBAM default -->
     <g transform="translate(83.392685 58.906594) scale(0.09 -0.09)">
      <use xlink:href="#DejaVuSans-45"/>
      <use xlink:href="#DejaVuSans-55" transform="translate(63.183594 0)"/>
      <use xlink:href="#DejaVuSans-20" transform="translate(136.376953 0)"/>
      <use xlink:href="#DejaVuSans-43" transform="translate(168.164062 0)"/>
      <use xlink:href="#DejaVuSans-42" transform="translate(237.988281 0)"/>
      <use xlink:href="#DejaVuSans-41" transform="translate(306.591797 0)"/>
      <use xlink:href="#DejaVuSans-4d" transform="translate(375 0)"/>
      <use xlink:href="#DejaVuSans-20" transform="translate(461.279297 0)"/>
      <use xlink:href="#DejaVuSans-64" transform="translate(493.066406 0)"/>
      <use xlink:href="#DejaVuSans-65" transform="translate(556.542969 0)"/>
      <use xlink:href="#DejaVuSans-66" transform="translate(618.066406 0)"/>
      <use xlink:href="#DejaVuSans-61" transform="translate(653.271484 0)"/>
      <use xlink:href="#DejaVuSans-75" transform="translate(714.550781 0)"/>
      <use xlink:href="#DejaVuSans-6c" transform="translate(777.929688 0)"/>
      <use xlink:href="#DejaVuSans-74" transform="translate(805.712891 0)"/>
     </g>
    </g>
    <g id="patch_44">
     <path d="M 58.192685 72.116906 
L 76.192685 72.116906 
L 76.192685 65.816906 
L 58.192685 65.816906 
z
" style="fill: #2d5a4c; stroke: #2d5a4c; stroke-linejoin: miter"/>
    </g>
    <g id="text_26">
     <!-- cf-corrected formula (leave-one-plant-out) -->
     <g transform="translate(83.392685 72.116906) scale(0.09 -0.09)">
      <use xlink:href="#DejaVuSans-63"/>
      <use xlink:href="#DejaVuSans-66" transform="translate(54.980469 0)"/>
      <use xlink:href="#DejaVuSans-2d" transform="translate(84.685547 0)"/>
      <use xlink:href="#DejaVuSans-63" transform="translate(120.769531 0)"/>
      <use xlink:href="#DejaVuSans-6f" transform="translate(175.75 0)"/>
      <use xlink:href="#DejaVuSans-72" transform="translate(236.931641 0)"/>
      <use xlink:href="#DejaVuSans-72" transform="translate(276.294922 0)"/>
      <use xlink:href="#DejaVuSans-65" transform="translate(315.158203 0)"/>
      <use xlink:href="#DejaVuSans-63" transform="translate(376.681641 0)"/>
      <use xlink:href="#DejaVuSans-74" transform="translate(431.662109 0)"/>
      <use xlink:href="#DejaVuSans-65" transform="translate(470.871094 0)"/>
      <use xlink:href="#DejaVuSans-64" transform="translate(532.394531 0)"/>
      <use xlink:href="#DejaVuSans-20" transform="translate(595.871094 0)"/>
      <use xlink:href="#DejaVuSans-66" transform="translate(627.658203 0)"/>
      <use xlink:href="#DejaVuSans-6f" transform="translate(662.863281 0)"/>
      <use xlink:href="#DejaVuSans-72" transform="translate(724.044922 0)"/>
      <use xlink:href="#DejaVuSans-6d" transform="translate(763.408203 0)"/>
      <use xlink:href="#DejaVuSans-75" transform="translate(860.820312 0)"/>
      <use xlink:href="#DejaVuSans-6c" transform="translate(924.199219 0)"/>
      <use xlink:href="#DejaVuSans-61" transform="translate(951.982422 0)"/>
      <use xlink:href="#DejaVuSans-20" transform="translate(1013.261719 0)"/>
      <use xlink:href="#DejaVuSans-28" transform="translate(1045.048828 0)"/>
      <use xlink:href="#DejaVuSans-6c" transform="translate(1084.0625 0)"/>
      <use xlink:href="#DejaVuSans-65" transform="translate(1111.845703 0)"/>
      <use xlink:href="#DejaVuSans-61" transform="translate(1173.369141 0)"/>
      <use xlink:href="#DejaVuSans-76" transform="translate(1234.648438 0)"/>
      <use xlink:href="#DejaVuSans-65" transform="translate(1293.828125 0)"/>
      <use xlink:href="#DejaVuSans-2d" transform="translate(1355.351562 0)"/>
      <use xlink:href="#DejaVuSans-6f" transform="translate(1393.310547 0)"/>
      <use xlink:href="#DejaVuSans-6e" transform="translate(1454.492188 0)"/>
      <use xlink:href="#DejaVuSans-65" transform="translate(1517.871094 0)"/>
      <use xlink:href="#DejaVuSans-2d" transform="translate(1579.394531 0)"/>
      <use xlink:href="#DejaVuSans-70" transform="translate(1615.478516 0)"/>
      <use xlink:href="#DejaVuSans-6c" transform="translate(1678.955078 0)"/>
      <use xlink:href="#DejaVuSans-61" transform="translate(1706.738281 0)"/>
      <use xlink:href="#DejaVuSans-6e" transform="translate(1768.017578 0)"/>
      <use xlink:href="#DejaVuSans-74" transform="translate(1831.396484 0)"/>
      <use xlink:href="#DejaVuSans-2d" transform="translate(1870.605469 0)"/>
      <use xlink:href="#DejaVuSans-6f" transform="translate(1908.564453 0)"/>
      <use xlink:href="#DejaVuSans-75" transform="translate(1969.746094 0)"/>
      <use xlink:href="#DejaVuSans-74" transform="translate(2033.125 0)"/>
      <use xlink:href="#DejaVuSans-29" transform="translate(2072.333984 0)"/>
     </g>
    </g>
    <g id="line2d_46">
     <defs>
      <path id="m2da9697c02" d="M 6 0 
L -6 -0 
" style="stroke: #14181d; stroke-width: 2.4"/>
     </defs>
     <g>
      <use xlink:href="#m2da9697c02" x="67.192685" y="82.177219" style="fill: #14181d; stroke: #14181d; stroke-width: 2.4"/>
     </g>
    </g>
    <g id="text_27">
     <!-- audit-grade Scope 1 (truth) -->
     <g transform="translate(83.392685 85.327219) scale(0.09 -0.09)">
      <use xlink:href="#DejaVuSans-61"/>
      <use xlink:href="#DejaVuSans-75" transform="translate(61.279297 0)"/>
      <use xlink:href="#DejaVuSans-64" transform="translate(124.658203 0)"/>
      <use xlink:href="#DejaVuSans-69" transform="translate(188.134766 0)"/>
      <use xlink:href="#DejaVuSans-74" transform="translate(215.917969 0)"/>
      <use xlink:href="#DejaVuSans-2d" transform="translate(255.126953 0)"/>
      <use xlink:href="#DejaVuSans-67" transform="translate(291.210938 0)"/>
      <use xlink:href="#DejaVuSans-72" transform="translate(354.6875 0)"/>
      <use xlink:href="#DejaVuSans-61" transform="translate(395.800781 0)"/>
      <use xlink:href="#DejaVuSans-64" transform="translate(457.080078 0)"/>
      <use xlink:href="#DejaVuSans-65" transform="translate(520.556641 0)"/>
      <use xlink:href="#DejaVuSans-20" transform="translate(582.080078 0)"/>
      <use xlink:href="#DejaVuSans-53" transform="translate(613.867188 0)"/>
      <use xlink:href="#DejaVuSans-63" transform="translate(677.34375 0)"/>
      <use xlink:href="#DejaVuSans-6f" transform="translate(732.324219 0)"/>
      <use xlink:href="#DejaVuSans-70" transform="translate(793.505859 0)"/>
      <use xlink:href="#DejaVuSans-65" transform="translate(856.982422 0)"/>
      <use xlink:href="#DejaVuSans-20" transform="translate(918.505859 0)"/>
      <use xlink:href="#DejaVuSans-31" transform="translate(950.292969 0)"/>
      <use xlink:href="#DejaVuSans-20" transform="translate(1013.916016 0)"/>
      <use xlink:href="#DejaVuSans-28" transform="translate(1045.703125 0)"/>
      <use xlink:href="#DejaVuSans-74" transform="translate(1084.716797 0)"/>
      <use xlink:href="#DejaVuSans-72" transform="translate(1123.925781 0)"/>
      <use xlink:href="#DejaVuSans-75" transform="translate(1165.039062 0)"/>
      <use xlink:href="#DejaVuSans-74" transform="translate(1228.417969 0)"/>
      <use xlink:href="#DejaVuSans-68" transform="translate(1267.626953 0)"/>
      <use xlink:href="#DejaVuSans-29" transform="translate(1331.005859 0)"/>
     </g>
    </g>
   </g>
  </g>
 </g>
 <defs>
  <clipPath id="pdf9ec40685">
   <rect x="50.092685" y="43.968" width="803.107315" height="266.684201"/>
  </clipPath>
 </defs>
</svg>
