<svg xmlns="http://www.w3.org/2000/svg" viewBox="0 0 1000 644" style="font-family:Georgia,serif;background:#fbf7ee">
<rect x="0" y="0" width="1000" height="644" fill="#fbf7ee"/>
<text x="240" y="36" font-size="20pt" font-weight="600" letter-spacing="-0.02em" fill="#14181d">iz-1 component ablations</text>
<text x="240" y="58" font-size="11pt" fill="#6e6862" font-style="italic">Per-plant log-MAE reduction vs EU CBAM default (LODO, n=8, 9 seeds per facility)</text>
<rect x="240" y="78" width="407.5833060911223" height="24" fill="#2d5a4c" opacity="0.5"/>
<text x="224" y="95" text-anchor="end" font-size="11pt" fill="#14181d">full</text>
<text x="655.5833060911223" y="95" font-size="10pt" fill="#14181d" font-weight="600">+82.4%</text>
<rect x="700" y="80" width="80" height="20" fill="#2d5a4c" opacity="0.16" stroke="#2d5a4c" stroke-width="0.7"/>
<text x="740" y="94" text-anchor="middle" font-size="9pt" fill="#14181d">cement +87%</text>
<rect x="790" y="80" width="80" height="20" fill="#b85c3f" opacity="0.16" stroke="#b85c3f" stroke-width="0.7"/>
<text x="830" y="94" text-anchor="middle" font-size="9pt" fill="#14181d">BF/BOF -118%</text>
<rect x="880" y="80" width="80" height="20" fill="#2d5a4c" opacity="0.16" stroke="#2d5a4c" stroke-width="0.7"/>
<text x="920" y="94" text-anchor="middle" font-size="9pt" fill="#14181d">EAF +99%</text>
<rect x="240" y="134" width="250.6056281419653" height="24" fill="#2d5a4c" opacity="0.5"/>
<text x="224" y="151" text-anchor="end" font-size="11pt" fill="#14181d">no_prior</text>
<text x="498.6056281419653" y="151" font-size="10pt" fill="#14181d" font-weight="600">+50.7%</text>
<rect x="700" y="136" width="80" height="20" fill="#2d5a4c" opacity="0.16" stroke="#2d5a4c" stroke-width="0.7"/>
<text x="740" y="150" text-anchor="middle" font-size="9pt" fill="#14181d">cement +76%</text>
<rect x="790" y="136" width="80" height="20" fill="#b85c3f" opacity="0.16" stroke="#b85c3f" stroke-width="0.7"/>
<text x="830" y="150" text-anchor="middle" font-size="9pt" fill="#14181d">BF/BOF -295%</text>
<rect x="880" y="136" width="80" height="20" fill="#2d5a4c" opacity="0.16" stroke="#2d5a4c" stroke-width="0.7"/>
<text x="920" y="150" text-anchor="middle" font-size="9pt" fill="#14181d">EAF +98%</text>
<rect x="240" y="190" width="354.54908069202264" height="24" fill="#2d5a4c" opacity="0.5"/>
<text x="224" y="207" text-anchor="end" font-size="11pt" fill="#14181d">no_disc</text>
<text x="602.5490806920227" y="207" font-size="10pt" fill="#14181d" font-weight="600">+71.7%</text>
<rect x="700" y="192" width="80" height="20" fill="#2d5a4c" opacity="0.16" stroke="#2d5a4c" stroke-width="0.7"/>
<text x="740" y="206" text-anchor="middle" font-size="9pt" fill="#14181d">cement +46%</text>
<rect x="790" y="192" width="80" height="20" fill="#b85c3f" opacity="0.16" stroke="#b85c3f" stroke-width="0.7"/>
<text x="830" y="206" text-anchor="middle" font-size="9pt" fill="#14181d">BF/BOF -191%</text>
<rect x="880" y="192" width="80" height="20" fill="#2d5a4c" opacity="0.16" stroke="#2d5a4c" stroke-width="0.7"/>
<text x="920" y="206" text-anchor="middle" font-size="9pt" fill="#14181d">EAF +89%</text>
<rect x="240" y="246" width="317.5007478911457" height="24" fill="#2d5a4c" opacity="0.5"/>
<text x="224" y="263" text-anchor="end" font-size="11pt" fill="#14181d">no_route</text>
<text x="565.5007478911457" y="263" font-size="10pt" fill="#14181d" font-weight="600">+64.2%</text>
<rect x="700" y="248" width="80" height="20" fill="#2d5a4c" opacity="0.16" stroke="#2d5a4c" stroke-width="0.7"/>
<text x="740" y="262" text-anchor="middle" font-size="9pt" fill="#14181d">cement +74%</text>
<rect x="790" y="248" width="80" height="20" fill="#b85c3f" opacity="0.16" stroke="#b85c3f" stroke-width="0.7"/>
<text x="830" y="262" text-anchor="middle" font-size="9pt" fill="#14181d">BF/BOF -428%</text>
<rect x="880" y="248" width="80" height="20" fill="#2d5a4c" opacity="0.16" stroke="#2d5a4c" stroke-width="0.7"/>
<text x="920" y="262" text-anchor="middle" font-size="9pt" fill="#14181d">EAF +38%</text>
<rect x="240" y="302" width="407.31969430795704" height="24" fill="#2d5a4c" opacity="0.5"/>
<text x="224" y="319" text-anchor="end" font-size="11pt" fill="#14181d">no_ct</text>
<text x="655.319694307957" y="319" font-size="10pt" fill="#14181d" font-weight="600">+82.4%</text>
<rect x="700" y="304" width="80" height="20" fill="#2d5a4c" opacity="0.16" stroke="#2d5a4c" stroke-width="0.7"/>
<text x="740" y="318" text-anchor="middle" font-size="9pt" fill="#14181d">cement +77%</text>
<rect x="790" y="304" width="80" height="20" fill="#b85c3f" opacity="0.16" stroke="#b85c3f" stroke-width="0.7"/>
<text x="830" y="318" text-anchor="middle" font-size="9pt" fill="#14181d">BF/BOF -133%</text>
<rect x="880" y="304" width="80" height="20" fill="#2d5a4c" opacity="0.16" stroke="#2d5a4c" stroke-width="0.7"/>
<text x="920" y="318" text-anchor="middle" font-size="9pt" fill="#14181d">EAF +97%</text>
<rect x="240" y="358" width="415.28094144631643" height="24" fill="#2d5a4c" opacity="0.5"/>
<text x="224" y="375" text-anchor="end" font-size="11pt" fill="#14181d">no_s5p</text>
<text x="663.2809414463164" y="375" font-size="10pt" fill="#14181d" font-weight="600">+84.0%</text>
<rect x="700" y="360" width="80" height="20" fill="#2d5a4c" opacity="0.16" stroke="#2d5a4c" stroke-width="0.7"/>
<text x="740" y="374" text-anchor="middle" font-size="9pt" fill="#14181d">cement +87%</text>
<rect x="790" y="360" width="80" height="20" fill="#b85c3f" opacity="0.16" stroke="#b85c3f" stroke-width="0.7"/>
<text x="830" y="374" text-anchor="middle" font-size="9pt" fill="#14181d">BF/BOF -85%</text>
<rect x="880" y="360" width="80" height="20" fill="#2d5a4c" opacity="0.16" stroke="#2d5a4c" stroke-width="0.7"/>
<text x="920" y="374" text-anchor="middle" font-size="9pt" fill="#14181d">EAF +98%</text>
<rect x="240" y="414" width="411.3185413893359" height="24" fill="#2d5a4c" opacity="0.5"/>
<text x="224" y="431" text-anchor="end" font-size="11pt" fill="#14181d">no_beirle</text>
<text x="659.3185413893359" y="431" font-size="10pt" fill="#14181d" font-weight="600">+83.2%</text>
<rect x="700" y="416" width="80" height="20" fill="#2d5a4c" opacity="0.16" stroke="#2d5a4c" stroke-width="0.7"/>
<text x="740" y="430" text-anchor="middle" font-size="9pt" fill="#14181d">cement +90%</text>
<rect x="790" y="416" width="80" height="20" fill="#b85c3f" opacity="0.16" stroke="#b85c3f" stroke-width="0.7"/>
<text x="830" y="430" text-anchor="middle" font-size="9pt" fill="#14181d">BF/BOF -31%</text>
<rect x="880" y="416" width="80" height="20" fill="#2d5a4c" opacity="0.16" stroke="#2d5a4c" stroke-width="0.7"/>
<text x="920" y="430" text-anchor="middle" font-size="9pt" fill="#14181d">EAF +99%</text>
<rect x="240" y="470" width="404.9229107503734" height="24" fill="#2d5a4c" opacity="0.5"/>
<text x="224" y="487" text-anchor="end" font-size="11pt" fill="#14181d">no_sat</text>
<text x="652.9229107503734" y="487" font-size="10pt" fill="#14181d" font-weight="600">+81.9%</text>
<rect x="700" y="472" width="80" height="20" fill="#2d5a4c" opacity="0.16" stroke="#2d5a4c" stroke-width="0.7"/>
<text x="740" y="486" text-anchor="middle" font-size="9pt" fill="#14181d">cement +88%</text>
<rect x="790" y="472" width="80" height="20" fill="#b85c3f" opacity="0.16" stroke="#b85c3f" stroke-width="0.7"/>
<text x="830" y="486" text-anchor="middle" font-size="9pt" fill="#14181d">BF/BOF -88%</text>
<rect x="880" y="472" width="80" height="20" fill="#2d5a4c" opacity="0.16" stroke="#2d5a4c" stroke-width="0.7"/>
<text x="920" y="486" text-anchor="middle" font-size="9pt" fill="#14181d">EAF +98%</text>
<rect x="240" y="526" width="300.8679869662947" height="24" fill="#2d5a4c" opacity="0.5"/>
<text x="224" y="543" text-anchor="end" font-size="11pt" fill="#14181d">no_disc_no_route</text>
<text x="548.8679869662947" y="543" font-size="10pt" fill="#14181d" font-weight="600">+60.9%</text>
<rect x="700" y="528" width="80" height="20" fill="#2d5a4c" opacity="0.16" stroke="#2d5a4c" stroke-width="0.7"/>
<text x="740" y="542" text-anchor="middle" font-size="9pt" fill="#14181d">cement +42%</text>
<rect x="790" y="528" width="80" height="20" fill="#b85c3f" opacity="0.16" stroke="#b85c3f" stroke-width="0.7"/>
<text x="830" y="542" text-anchor="middle" font-size="9pt" fill="#14181d">BF/BOF -474%</text>
<rect x="880" y="528" width="80" height="20" fill="#2d5a4c" opacity="0.16" stroke="#2d5a4c" stroke-width="0.7"/>
<text x="920" y="542" text-anchor="middle" font-size="9pt" fill="#14181d">EAF +30%</text>
<line x1="734.3811710736705" x2="734.3811710736705" y1="62" y2="614" stroke="#d8cfbe" stroke-dasharray="3 3"/>
<text x="738.3811710736705" y="68" font-size="9pt" fill="#6e6862">100% (perfect vs EU)</text>
</svg>