<svg xmlns="http://www.w3.org/2000/svg" viewBox="0 0 1260 560" style="font-family:Georgia,serif;background:#fbf7ee">
<rect x="0" y="0" width="1260" height="560" fill="#fbf7ee"/>
<text x="230" y="36" fill="#14181d" font-size="22pt" font-weight="600" letter-spacing="-0.02em">iz-1 per-plant CO₂ vs the EU CBAM default</text>
<text x="230" y="62" fill="#6e6862" font-size="11pt" font-style="italic">Leave-one-disclosure-out · 20 audit-grade Turkish facilities · all 4 CBAM scopes · 15 seeds per plant · log-MAE reduction 85.1% vs EU default</text>
<line x1="230" x2="1200" y1="450.0" y2="450.0" stroke="#d8cfbe" stroke-width="0.5"/>
<text x="218" y="454.0" text-anchor="end" font-size="9pt" fill="#6e6862">1,000</text>
<line x1="230" x2="1200" y1="378.0" y2="378.0" stroke="#d8cfbe" stroke-width="0.5"/>
<text x="218" y="382.0" text-anchor="end" font-size="9pt" fill="#6e6862">10k</text>
<line x1="230" x2="1200" y1="306.0" y2="306.0" stroke="#d8cfbe" stroke-width="0.5"/>
<text x="218" y="310.0" text-anchor="end" font-size="9pt" fill="#6e6862">100k</text>
<line x1="230" x2="1200" y1="234.0" y2="234.0" stroke="#d8cfbe" stroke-width="0.5"/>
<text x="218" y="238.0" text-anchor="end" font-size="9pt" fill="#6e6862">1M</text>
<line x1="230" x2="1200" y1="162.0" y2="162.0" stroke="#d8cfbe" stroke-width="0.5"/>
<text x="218" y="166.0" text-anchor="end" font-size="9pt" fill="#6e6862">10M</text>
<line x1="230" x2="1200" y1="90.0" y2="90.0" stroke="#d8cfbe" stroke-width="0.5"/>
<text x="218" y="94.0" text-anchor="end" font-size="9pt" fill="#6e6862">10^8</text>
<text x="180" y="270.0" transform="rotate(-90 180 270.0)" text-anchor="middle" font-size="10pt" fill="#6e6862" letter-spacing="0.12em">tCO₂ / yr (log)</text>
<rect x="233.6375" y="235.27647122115113" width="41.225" height="214.72352877884887" fill="#b85c3f" opacity="0.18"/>
<rect x="233.6375" y="357.0966687923923" width="41.225" height="92.90333120760772" fill="#2d5a4c" opacity="0.55"/>
<line x1="227.6375" x2="280.8625" y1="378.5425093578209" y2="378.5425093578209" stroke="#14181d" stroke-width="2"/>
<text x="254.25" y="468" text-anchor="end" font-size="8.5pt" fill="#14181d" transform="rotate(-32 254.25 468)">bagfas · bandirma</text>
<text x="254.25" y="351.0966687923923" text-anchor="middle" font-size="8pt" fill="#2d5a4c" font-weight="600">1.99×</text>
<rect x="282.1375" y="228.29895028457096" width="41.225" height="221.70104971542904" fill="#b85c3f" opacity="0.18"/>
<rect x="282.1375" y="366.7023053495988" width="41.225" height="83.29769465040118" fill="#2d5a4c" opacity="0.55"/>
<line x1="276.1375" x2="329.3625" y1="369.12738407770723" y2="369.12738407770723" stroke="#14181d" stroke-width="2"/>
<text x="302.75" y="468" text-anchor="end" font-size="8.5pt" fill="#14181d" transform="rotate(-32 302.75 468)">gubretas · izmit</text>
<text x="302.75" y="360.7023053495988" text-anchor="middle" font-size="8pt" fill="#2d5a4c" font-weight="600">1.08×</text>
<rect x="330.6375" y="264.66974872360424" width="41.225" height="185.33025127639576" fill="#b85c3f" opacity="0.18"/>
<rect x="330.6375" y="309.1423858827076" width="41.225" height="140.85761411729243" fill="#2d5a4c" opacity="0.55"/>
<line x1="324.6375" x2="377.8625" y1="317.7764599982868" y2="317.7764599982868" stroke="#14181d" stroke-width="2"/>
<text x="351.25" y="468" text-anchor="end" font-size="8.5pt" fill="#14181d" transform="rotate(-32 351.25 468)">asas · akyazi</text>
<text x="351.25" y="303.1423858827076" text-anchor="middle" font-size="8pt" fill="#2d5a4c" font-weight="600">1.32×</text>
<rect x="379.1375" y="258.96869900817524" width="41.225" height="191.03130099182476" fill="#b85c3f" opacity="0.18"/>
<rect x="379.1375" y="306.37148725960844" width="41.225" height="143.62851274039156" fill="#2d5a4c" opacity="0.55"/>
<line x1="373.1375" x2="426.3625" y1="303.4490588507125" y2="303.4490588507125" stroke="#14181d" stroke-width="2"/>
<text x="399.75" y="468" text-anchor="end" font-size="8.5pt" fill="#14181d" transform="rotate(-32 399.75 468)">assan · tuzla</text>
<text x="399.75" y="300.37148725960844" text-anchor="middle" font-size="8pt" fill="#2d5a4c" font-weight="600">0.91×</text>
<rect x="427.6375" y="247.95504187316007" width="41.225" height="202.04495812683993" fill="#b85c3f" opacity="0.18"/>
<rect x="427.6375" y="291.2678127450862" width="41.225" height="158.7321872549138" fill="#2d5a4c" opacity="0.55"/>
<line x1="421.6375" x2="474.8625" y1="283.7311624328215" y2="283.7311624328215" stroke="#14181d" stroke-width="2"/>
<text x="448.25" y="468" text-anchor="end" font-size="8.5pt" fill="#14181d" transform="rotate(-32 448.25 468)">toros · ceyhan</text>
<text x="448.25" y="285.2678127450862" text-anchor="middle" font-size="8pt" fill="#2d5a4c" font-weight="600">0.79×</text>
<rect x="476.1375" y="240.97752093658008" width="41.225" height="209.02247906341992" fill="#b85c3f" opacity="0.18"/>
<rect x="476.1375" y="284.73674782663375" width="41.225" height="165.26325217336625" fill="#2d5a4c" opacity="0.55"/>
<line x1="470.1375" x2="523.3625" y1="276.707042416968" y2="276.707042416968" stroke="#14181d" stroke-width="2"/>
<text x="496.75" y="468" text-anchor="end" font-size="8.5pt" fill="#14181d" transform="rotate(-32 496.75 468)">toros · samsun</text>
<text x="496.75" y="278.73674782663375" text-anchor="middle" font-size="8pt" fill="#2d5a4c" font-weight="600">0.77×</text>
<rect x="524.6375" y="201.25117007938726" width="41.225" height="248.74882992061274" fill="#b85c3f" opacity="0.18"/>
<rect x="524.6375" y="271.40338536889783" width="41.225" height="178.59661463110217" fill="#2d5a4c" opacity="0.55"/>
<line x1="518.6375" x2="571.8625" y1="274.8120219818782" y2="274.8120219818782" stroke="#14181d" stroke-width="2"/>
<text x="545.25" y="468" text-anchor="end" font-size="8.5pt" fill="#14181d" transform="rotate(-32 545.25 468)">izdemir · aliaga</text>
<text x="545.25" y="265.40338536889783" text-anchor="middle" font-size="8pt" fill="#2d5a4c" font-weight="600">1.12×</text>
<rect x="573.1375" y="228.29895028457096" width="41.225" height="221.70104971542904" fill="#b85c3f" opacity="0.18"/>
<rect x="573.1375" y="271.4780408801305" width="41.225" height="178.5219591198695" fill="#2d5a4c" opacity="0.55"/>
<line x1="567.1375" x2="620.3625" y1="263.99744424772524" y2="263.99744424772524" stroke="#14181d" stroke-width="2"/>
<text x="593.75" y="468" text-anchor="end" font-size="8.5pt" fill="#14181d" transform="rotate(-32 593.75 468)">toros · mersin</text>
<text x="593.75" y="265.4780408801305" text-anchor="middle" font-size="8pt" fill="#2d5a4c" font-weight="600">0.79×</text>
<rect x="621.6375" y="206.93905658574076" width="41.225" height="243.06094341425924" fill="#b85c3f" opacity="0.18"/>
<rect x="621.6375" y="248.61888768860555" width="41.225" height="201.38111231139445" fill="#2d5a4c" opacity="0.55"/>
<line x1="615.6375" x2="668.8625" y1="255.7367607151159" y2="255.7367607151159" stroke="#14181d" stroke-width="2"/>
<text x="642.25" y="468" text-anchor="end" font-size="8.5pt" fill="#14181d" transform="rotate(-32 642.25 468)">akcansa · ladik</text>
<text x="642.25" y="242.61888768860555" text-anchor="middle" font-size="8pt" fill="#2d5a4c" font-weight="600">1.26×</text>
<rect x="670.1375" y="179.57701039158064" width="41.225" height="270.42298960841936" fill="#b85c3f" opacity="0.18"/>
<rect x="670.1375" y="251.17860038282396" width="41.225" height="198.82139961717604" fill="#2d5a4c" opacity="0.55"/>
<line x1="664.1375" x2="717.3625" y1="251.7685574488011" y2="251.7685574488011" stroke="#14181d" stroke-width="2"/>
<text x="690.75" y="468" text-anchor="end" font-size="8.5pt" fill="#14181d" transform="rotate(-32 690.75 468)">colakoglu · gebze</text>
<text x="690.75" y="245.17860038282396" text-anchor="middle" font-size="8pt" fill="#2d5a4c" font-weight="600">1.02×</text>
<rect x="718.6375" y="163.603900419203" width="41.225" height="286.396099580797" fill="#b85c3f" opacity="0.18"/>
<rect x="718.6375" y="236.50439345555873" width="41.225" height="213.49560654444127" fill="#2d5a4c" opacity="0.55"/>
<line x1="712.6375" x2="765.8625" y1="248.13255780400385" y2="248.13255780400385" stroke="#14181d" stroke-width="2"/>
<text x="739.25" y="468" text-anchor="end" font-size="8.5pt" fill="#14181d" transform="rotate(-32 739.25 468)">habas · aliaga</text>
<text x="739.25" y="230.50439345555873" text-anchor="middle" font-size="8pt" fill="#2d5a4c" font-weight="600">1.45×</text>
<rect x="767.1375" y="196.41783801690764" width="41.225" height="253.58216198309236" fill="#b85c3f" opacity="0.18"/>
<rect x="767.1375" y="244.59317042309402" width="41.225" height="205.40682957690598" fill="#2d5a4c" opacity="0.55"/>
<line x1="761.1375" x2="814.3625" y1="228.29895028457096" y2="228.29895028457096" stroke="#14181d" stroke-width="2"/>
<text x="787.75" y="468" text-anchor="end" font-size="8.5pt" fill="#14181d" transform="rotate(-32 787.75 468)">afyon · cimento</text>
<text x="787.75" y="238.59317042309402" text-anchor="middle" font-size="8pt" fill="#2d5a4c" font-weight="600">0.59×</text>
<rect x="815.6375" y="172.58632624592508" width="41.225" height="277.4136737540749" fill="#b85c3f" opacity="0.18"/>
<rect x="815.6375" y="218.68002974234304" width="41.225" height="231.31997025765696" fill="#2d5a4c" opacity="0.55"/>
<line x1="809.6375" x2="862.8625" y1="221.03093698818813" y2="221.03093698818813" stroke="#14181d" stroke-width="2"/>
<text x="836.25" y="468" text-anchor="end" font-size="8.5pt" fill="#14181d" transform="rotate(-32 836.25 468)">akcansa · buyukcekmece</text>
<text x="836.25" y="212.68002974234304" text-anchor="middle" font-size="8pt" fill="#2d5a4c" font-weight="600">1.08×</text>
<rect x="864.1375" y="176.26930786213654" width="41.225" height="273.73069213786346" fill="#b85c3f" opacity="0.18"/>
<rect x="864.1375" y="219.3831407732182" width="41.225" height="230.6168592267818" fill="#2d5a4c" opacity="0.55"/>
<line x1="858.1375" x2="911.3625" y1="219.73776247861613" y2="219.73776247861613" stroke="#14181d" stroke-width="2"/>
<text x="884.75" y="468" text-anchor="end" font-size="8.5pt" fill="#14181d" transform="rotate(-32 884.75 468)">batisoke · soke</text>
<text x="884.75" y="213.3831407732182" text-anchor="middle" font-size="8pt" fill="#2d5a4c" font-weight="600">1.01×</text>
<rect x="912.6375" y="197.94346754994316" width="41.225" height="252.05653245005684" fill="#b85c3f" opacity="0.18"/>
<rect x="912.6375" y="242.7578071724557" width="41.225" height="207.2421928275443" fill="#2d5a4c" opacity="0.55"/>
<line x1="906.6375" x2="959.8625" y1="217.98179484715075" y2="217.98179484715075" stroke="#14181d" stroke-width="2"/>
<text x="933.25" y="468" text-anchor="end" font-size="8.5pt" fill="#14181d" transform="rotate(-32 933.25 468)">goltas · isparta</text>
<text x="933.25" y="236.7578071724557" text-anchor="middle" font-size="8pt" fill="#2d5a4c" font-weight="600">0.45×</text>
<rect x="961.1375" y="163.5907372101275" width="41.225" height="286.4092627898725" fill="#b85c3f" opacity="0.18"/>
<rect x="961.1375" y="193.162960260795" width="41.225" height="256.837039739205" fill="#2d5a4c" opacity="0.55"/>
<line x1="955.1375" x2="1008.3625" y1="195.13234379679128" y2="195.13234379679128" stroke="#14181d" stroke-width="2"/>
<text x="981.75" y="468" text-anchor="end" font-size="8.5pt" fill="#14181d" transform="rotate(-32 981.75 468)">akcansa · canakkale</text>
<text x="981.75" y="187.162960260795" text-anchor="middle" font-size="8pt" fill="#2d5a4c" font-weight="600">1.07×</text>
<rect x="1009.6375" y="163.5907372101275" width="41.225" height="286.4092627898725" fill="#b85c3f" opacity="0.18"/>
<rect x="1009.6375" y="205.6538817353384" width="41.225" height="244.3461182646616" fill="#2d5a4c" opacity="0.55"/>
<line x1="1003.6375" x2="1056.8625" y1="194.17919000381593" y2="194.17919000381593" stroke="#14181d" stroke-width="2"/>
<text x="1030.25" y="468" text-anchor="end" font-size="8.5pt" fill="#14181d" transform="rotate(-32 1030.25 468)">nuh · hereke</text>
<text x="1030.25" y="199.6538817353384" text-anchor="middle" font-size="8pt" fill="#2d5a4c" font-weight="600">0.69×</text>
<rect x="1058.1375" y="174.7568415381765" width="41.225" height="275.2431584618235" fill="#b85c3f" opacity="0.18"/>
<rect x="1058.1375" y="183.2915054323999" width="41.225" height="266.7084945676001" fill="#2d5a4c" opacity="0.55"/>
<line x1="1052.1375" x2="1105.3625" y1="179.849047431943" y2="179.849047431943" stroke="#14181d" stroke-width="2"/>
<text x="1078.75" y="468" text-anchor="end" font-size="8.5pt" fill="#14181d" transform="rotate(-32 1078.75 468)">kardemir · karabuk</text>
<text x="1078.75" y="177.2915054323999" text-anchor="middle" font-size="8pt" fill="#2d5a4c" font-weight="600">0.90×</text>
<rect x="1106.6375" y="170.58142135578305" width="41.225" height="279.41857864421695" fill="#b85c3f" opacity="0.18"/>
<rect x="1106.6375" y="172.31516327768975" width="41.225" height="277.68483672231025" fill="#2d5a4c" opacity="0.55"/>
<line x1="1100.6375" x2="1153.8625" y1="174.6476325785336" y2="174.6476325785336" stroke="#14181d" stroke-width="2"/>
<text x="1127.25" y="468" text-anchor="end" font-size="8.5pt" fill="#14181d" transform="rotate(-32 1127.25 468)">erdemir · eregli</text>
<text x="1127.25" y="166.31516327768975" text-anchor="middle" font-size="8pt" fill="#2d5a4c" font-weight="600">1.08×</text>
<rect x="1155.1375" y="160.62362708781075" width="41.225" height="289.37637291218925" fill="#b85c3f" opacity="0.18"/>
<rect x="1155.1375" y="162.0859519845472" width="41.225" height="287.9140480154528" fill="#2d5a4c" opacity="0.55"/>
<line x1="1149.1375" x2="1202.3625" y1="159.99161512682934" y2="159.99161512682934" stroke="#14181d" stroke-width="2"/>
<text x="1175.75" y="468" text-anchor="end" font-size="8.5pt" fill="#14181d" transform="rotate(-32 1175.75 468)">isdemir · iskenderun</text>
<text x="1175.75" y="156.0859519845472" text-anchor="middle" font-size="8pt" fill="#2d5a4c" font-weight="600">0.94×</text>
<rect x="238" y="94" width="14" height="14" fill="#b85c3f" opacity="0.18"/>
<text x="260" y="104" font-size="10pt" fill="#14181d">EU CBAM default (capacity × default EF)</text>
<rect x="238" y="114" width="14" height="14" fill="#2d5a4c" opacity="0.55"/>
<text x="260" y="124" font-size="10pt" fill="#14181d">iz-1 prediction (median of 3 seeds)</text>
<line x1="238" x2="252" y1="141" y2="141" stroke="#14181d" stroke-width="2"/>
<text x="260" y="144" font-size="10pt" fill="#14181d">Disclosed truth (Scope 1 from IAR / sustainability report)</text>
<rect x="920" y="96" width="280" height="74" fill="#fbf7ee" stroke="#d8cfbe"/>
<text x="932" y="118" font-size="9pt" letter-spacing="0.16em" fill="#6e6862" text-transform="uppercase">PER-PLANT LOG-MAE</text>
<text x="932" y="140" font-size="14pt" fill="#14181d"><tspan font-weight="600" fill="#2d5a4c">iz-1</tspan> 0.234   |   <tspan fill="#b85c3f">EU</tspan> 1.573</text>
<text x="932" y="160" font-size="13pt" fill="#2d5a4c" font-weight="600">85.1% reduction</text>
</svg>